<?xml version="1.0" encoding="utf-8"?>
<!-- Generator: Adobe Illustrator 21.0.2, SVG Export Plug-In . SVG Version: 6.00 Build 0)  -->
<svg version="1.1" id="Calque_2" xmlns="http://www.w3.org/2000/svg" xmlns:xlink="http://www.w3.org/1999/xlink" x="0px" y="0px"
	 viewBox="0 0 32.8 29.7" style="enable-background:new 0 0 32.8 29.7;" xml:space="preserve">
<style type="text/css">
	.st0{fill:#022343;}
	.st1{fill:none;stroke:#FFFFFF;stroke-width:0.8;stroke-miterlimit:10;}
	.st2{fill:#FFFFFF;}
	.st3{fill-rule:evenodd;clip-rule:evenodd;fill:#FFFFFF;}
	.st4{fill:none;stroke:#FFFFFF;stroke-width:0.6;stroke-miterlimit:10;}
</style>
<g>
	<g>
		<path class="st2" d="M28.1,27.9H4.9c-1.6,0-3-1.3-3-3V3.5c0-1.1,0.9-2,2-2h6.6c0.9,0,1.3,0.6,1.6,1.2c0.1,0.1,0.2,0.3,0.3,0.5
			l1.3,1.9h14.4c1.6,0,3,1.3,3,3v16.9C31.1,26.6,29.8,27.9,28.1,27.9z M3.9,2.7c-0.4,0-0.8,0.4-0.8,0.8v21.4c0,1,0.8,1.8,1.8,1.8
			h23.2c1,0,1.8-0.8,1.8-1.8V8c0-1-0.8-1.8-1.8-1.8H13.1l-1.6-2.4c-0.1-0.2-0.2-0.4-0.3-0.6c-0.3-0.6-0.3-0.6-0.6-0.6H3.9z"/>
	</g>
	<g>
		<g>
			<path class="st3" d="M20,15h-0.4v-1.5c0-1.8-1.3-3.2-3.1-3.2c-1.8,0-3.1,1.4-3.1,3.2V15H13c-0.9,0-1.6,0.7-1.6,1.6v4.7
				c0,0.9,0.7,1.6,1.6,1.6h7c0.9,0,1.6-0.7,1.6-1.6v-4.7C21.6,15.7,20.9,15,20,15z M14.2,13.5c0-1.3,0.9-2.4,2.3-2.4
				c1.4,0,2.4,1.1,2.4,2.4V15h-4.7V13.5z M20.8,21.2c0,0.4-0.4,0.8-0.8,0.8h-7c-0.4,0-0.8-0.3-0.8-0.8v-4.7c0-0.4,0.4-0.8,0.8-0.8h7
				c0.4,0,0.8,0.3,0.8,0.8V21.2z"/>
		</g>
		<g>
			<path class="st4" d="M20,15h-0.4v-1.5c0-1.8-1.3-3.2-3.1-3.2c-1.8,0-3.1,1.4-3.1,3.2V15H13c-0.9,0-1.6,0.7-1.6,1.6v4.7
				c0,0.9,0.7,1.6,1.6,1.6h7c0.9,0,1.6-0.7,1.6-1.6v-4.7C21.6,15.7,20.9,15,20,15z M14.2,13.5c0-1.3,0.9-2.4,2.3-2.4
				c1.4,0,2.4,1.1,2.4,2.4V15h-4.7V13.5z M20.8,21.2c0,0.4-0.4,0.8-0.8,0.8h-7c-0.4,0-0.8-0.3-0.8-0.8v-4.7c0-0.4,0.4-0.8,0.8-0.8h7
				c0.4,0,0.8,0.3,0.8,0.8V21.2z"/>
		</g>
	</g>
</g>
</svg>
