<?xml version="1.0" encoding="utf-8"?>
<!-- Generated by IcoMoon.io -->
<!DOCTYPE svg PUBLIC "-//W3C//DTD SVG 1.1//EN" "http://www.w3.org/Graphics/SVG/1.1/DTD/svg11.dtd">
<svg version="1.1" xmlns="http://www.w3.org/2000/svg" xmlns:xlink="http://www.w3.org/1999/xlink" width="32" height="32" viewBox="0 0 32 32">
<path fill='#FFFFFF' d="M16 32c-8.822 0-16-7.178-16-16s7.178-16 16-16 16 7.178 16 16c0 8.822-7.178 16-16 16zM16 2.133c-7.646 0-13.867 6.221-13.867 13.867s6.221 13.867 13.867 13.867 13.867-6.221 13.867-13.867c0-7.646-6.221-13.867-13.867-13.867z"></path>
<path fill='#FFFFFF' d="M15.023 20.157l-0.051-0.659c-0.153-1.343 0.304-2.864 1.571-4.383 1.14-1.344 1.774-2.332 1.774-3.472 0-1.293-0.811-2.155-2.407-2.179-0.912 0-1.925 0.303-2.559 0.785l-0.608-1.597c0.862-0.608 2.282-1.013 3.623-1.013 2.914 0 4.233 1.799 4.233 3.725 0 1.723-0.962 2.965-2.179 4.41-1.115 1.317-1.521 2.459-1.444 3.751l0.050 0.634h-2.002zM14.491 23.73c0-0.938 0.634-1.596 1.494-1.596 0.912 0 1.495 0.658 1.495 1.596 0 0.887-0.583 1.572-1.521 1.572-0.86 0-1.469-0.685-1.469-1.572z"></path>
</svg>
