<?xml version="1.0"?>
<!--Icons from directory ""-->
<svg xmlns="http://www.w3.org/2000/svg" width="200" height="1130" viewBox="0 0 200 1130"><svg width="30" height="30" id="svg-1" y="0"><linearGradient id="svg-1-a"><stop offset="0%" stop-color="#ff5922"/><stop offset="100%" stop-color="#afff29"/></linearGradient><path fill="url(#svg-1-a)" stroke="#555" stroke-width="2" d="M2 2h26v26H2z"/></svg><svg width="200" height="200" id="svg-10" y="30"><linearGradient id="svg-10-a"><stop offset="0%" stop-color="#ff5922"/><stop offset="100%" stop-color="#afff29"/></linearGradient><path fill="url(#svg-10-a)" stroke="#555" stroke-width="2" d="M2 2h196v196H2z"/><text x="50%" y="50%" font-size="18" text-anchor="middle" alignment-baseline="middle" font-family="monospace, sans-serif" fill="#555">200&#xD7;200</text></svg><svg width="45" height="45" id="svg-2" y="230"><linearGradient id="svg-2-a"><stop offset="0%" stop-color="#ff5922"/><stop offset="100%" stop-color="#afff29"/></linearGradient><path fill="url(#svg-2-a)" stroke="#555" stroke-width="2" d="M2 2h41v41H2z"/></svg><svg width="60" height="60" id="svg-3" y="275"><linearGradient id="svg-3-a"><stop offset="0%" stop-color="#ff5922"/><stop offset="100%" stop-color="#afff29"/></linearGradient><path fill="url(#svg-3-a)" stroke="#555" stroke-width="2" d="M2 2h56v56H2z"/></svg><svg width="85" height="85" id="svg-4" y="335"><linearGradient id="svg-4-a"><stop offset="0%" stop-color="#ff5922"/><stop offset="100%" stop-color="#afff29"/></linearGradient><path fill="url(#svg-4-a)" stroke="#555" stroke-width="2" d="M2 2h81v81H2z"/><text x="50%" y="50%" font-size="18" text-anchor="middle" alignment-baseline="middle" font-family="monospace, sans-serif" fill="#555">85&#xD7;85</text></svg><svg width="100" height="100" id="svg-5" y="420"><linearGradient id="svg-5-a"><stop offset="0%" stop-color="#ff5922"/><stop offset="100%" stop-color="#afff29"/></linearGradient><path fill="url(#svg-5-a)" stroke="#555" stroke-width="2" d="M2 2h96v96H2z"/><text x="50%" y="50%" font-size="18" text-anchor="middle" alignment-baseline="middle" font-family="monospace, sans-serif" fill="#555">100&#xD7;100</text></svg><svg width="125" height="125" id="svg-6" y="520"><linearGradient id="svg-6-a"><stop offset="0%" stop-color="#ff5922"/><stop offset="100%" stop-color="#afff29"/></linearGradient><path fill="url(#svg-6-a)" stroke="#555" stroke-width="2" d="M2 2h121v121H2z"/><text x="50%" y="50%" font-size="18" text-anchor="middle" alignment-baseline="middle" font-family="monospace, sans-serif" fill="#555">125&#xD7;125</text></svg><svg width="140" height="140" id="svg-7" y="645"><linearGradient id="svg-7-a"><stop offset="0%" stop-color="#ff5922"/><stop offset="100%" stop-color="#afff29"/></linearGradient><path fill="url(#svg-7-a)" stroke="#555" stroke-width="2" d="M2 2h136v136H2z"/><text x="50%" y="50%" font-size="18" text-anchor="middle" alignment-baseline="middle" font-family="monospace, sans-serif" fill="#555">140&#xD7;140</text></svg><svg width="165" height="165" id="svg-8" y="785"><linearGradient id="svg-8-a"><stop offset="0%" stop-color="#ff5922"/><stop offset="100%" stop-color="#afff29"/></linearGradient><path fill="url(#svg-8-a)" stroke="#555" stroke-width="2" d="M2 2h161v161H2z"/><text x="50%" y="50%" font-size="18" text-anchor="middle" alignment-baseline="middle" font-family="monospace, sans-serif" fill="#555">165&#xD7;165</text></svg><svg width="180" height="180" id="svg-9" y="950"><linearGradient id="svg-9-a"><stop offset="0%" stop-color="#ff5922"/><stop offset="100%" stop-color="#afff29"/></linearGradient><path fill="url(#svg-9-a)" stroke="#555" stroke-width="2" d="M2 2h176v176H2z"/><text x="50%" y="50%" font-size="18" text-anchor="middle" alignment-baseline="middle" font-family="monospace, sans-serif" fill="#555">180&#xD7;180</text></svg></svg>
