<?xml version="1.0" encoding="utf-8"?>
<!DOCTYPE svg PUBLIC "-//W3C//DTD SVG 1.1//EN" "http://www.w3.org/Graphics/SVG/1.1/DTD/svg11.dtd">
<svg version="1.1" xmlns="http://www.w3.org/2000/svg" xmlns:xlink="http://www.w3.org/1999/xlink" x="0px" y="0px"
	 width="20px" height="20px" viewBox="0 0 20 20" enable-background="new 0 0 20 20" xml:space="preserve">
	<path fill="#868686" d="M10,10.941c-0.218,0-0.395-0.176-0.395-0.394V0.783c0-0.218,0.177-0.394,0.395-0.394
		s0.395,0.176,0.395,0.394v9.764C10.395,10.765,10.218,10.941,10,10.941z"/>
	<path fill="#868686" d="M10,19.446c-5.081,0-9.213-4.134-9.213-9.214c0-2.928,1.349-5.615,3.702-7.374
		c0.175-0.129,0.421-0.095,0.552,0.08C5.17,3.113,5.135,3.36,4.96,3.49c-2.151,1.608-3.385,4.065-3.385,6.742
		c0,4.646,3.78,8.425,8.425,8.425s8.425-3.779,8.425-8.425c0-2.676-1.233-5.133-3.386-6.742c-0.174-0.13-0.21-0.377-0.079-0.552
		c0.131-0.173,0.377-0.208,0.552-0.08c2.353,1.759,3.702,4.447,3.702,7.374C19.214,15.313,15.08,19.446,10,19.446z"/>
</svg>