<?xml version="1.0" encoding="utf-8"?>
<!-- Generated by IcoMoon.io -->
<!DOCTYPE svg PUBLIC "-//W3C//DTD SVG 1.1//EN" "http://www.w3.org/Graphics/SVG/1.1/DTD/svg11.dtd">
<svg version="1.1" xmlns="http://www.w3.org/2000/svg" xmlns:xlink="http://www.w3.org/1999/xlink" width="39" height="32" viewBox="0 0 39 32">
<path fill='#FFFFFF' d="M33.158 32h-27.432c-3.158 0-5.726-2.568-5.726-5.726v-20.549c0-3.158 2.568-5.726 5.726-5.726h27.432c3.158 0 5.726 2.568 5.726 5.726v20.549c0 3.159-2.568 5.726-5.726 5.726zM5.726 2.863c-1.579 0-2.863 1.284-2.863 2.863v20.549c0 1.579 1.284 2.863 2.863 2.863h27.432c1.579 0 2.863-1.284 2.863-2.863v-20.549c0-1.579-1.284-2.863-2.863-2.863h-27.432z"></path>
<path fill='#FFFFFF' d="M19.441 19.789c-0.799 0-1.549-0.312-2.111-0.877l-15.224-15.226 2.024-2.024 15.227 15.228h0.17l15.44-15.44 2.024 2.024-15.44 15.44c-0.565 0.564-1.313 0.875-2.11 0.875z"></path>
<path fill='#FFFFFF' d="M4.87 30.861c-0.336 0-0.68-0.062-1.019-0.182l-2.136-0.759 14.002-14 2.024 2.024-12.399 12.399-0.494-0.494 0.021 1.012z"></path>
<path fill='#FFFFFF' d="M34.014 30.861v-0.991l-0.472 0.472-12.366-12.364 2.024-2.024 13.959 13.957-2.12 0.764c-0.339 0.123-0.684 0.185-1.025 0.185z"></path>
</svg>
