<?xml version="1.0" encoding="utf-8"?>
<!-- Generator: Adobe Illustrator 15.0.2, SVG Export Plug-In . SVG Version: 6.00 Build 0)  -->
<!DOCTYPE svg PUBLIC "-//W3C//DTD SVG 1.1//EN" "http://www.w3.org/Graphics/SVG/1.1/DTD/svg11.dtd">
<svg version="1.1" id="Layer_1" xmlns="http://www.w3.org/2000/svg" xmlns:xlink="http://www.w3.org/1999/xlink" x="0px" y="0px"
	 width="31px" height="34px" viewBox="-1 -1 31 34" enable-background="new -1 -1 31 34" xml:space="preserve">
<g>
	<g>
		<path fill="#FFFFFF" d="M0.651,32C0.292,32,0,31.709,0,31.35v-8.912c0-0.358,0.292-0.649,0.651-0.649s0.651,0.291,0.651,0.649
			v8.912C1.302,31.709,1.01,32,0.651,32z"/>
		<path fill="#FFFFFF" d="M0.651,32.5c-0.635,0-1.151-0.516-1.151-1.15v-8.912c0-0.634,0.516-1.149,1.151-1.149
			s1.151,0.516,1.151,1.149v8.912C1.802,31.984,1.286,32.5,0.651,32.5z M0.651,22.288c-0.083,0-0.151,0.067-0.151,0.149v8.912
			c0,0.166,0.302,0.166,0.302,0v-8.912C0.802,22.355,0.734,22.288,0.651,22.288z"/>
	</g>
	<g>
		<path fill="#FFFFFF" d="M0.651,32.5c-0.635,0-1.151-0.516-1.151-1.15v-8.912c0-0.634,0.516-1.149,1.151-1.149
			s1.151,0.516,1.151,1.149v8.912C1.802,31.984,1.286,32.5,0.651,32.5z M0.651,22.288c-0.083,0-0.151,0.067-0.151,0.149v8.912
			c0,0.166,0.302,0.166,0.302,0v-8.912C0.802,22.355,0.734,22.288,0.651,22.288z"/>
		<path fill="#FFFFFF" d="M0.651,33C-0.259,33-1,32.26-1,31.35v-8.912c0-0.909,0.741-1.649,1.651-1.649s1.651,0.74,1.651,1.649
			v8.912C2.302,32.26,1.561,33,0.651,33z M0,31.352C0.001,31.709,0.292,32,0.651,32s0.65-0.291,0.651-0.648
			c-0.001,0.35-0.287,0.623-0.651,0.623S0.001,31.701,0,31.352z M0.651,21.788C0.292,21.788,0,22.079,0,22.438v8.912v-8.912
			C0,22.079,0.292,21.788,0.651,21.788s0.651,0.291,0.651,0.649C1.302,22.079,1.01,21.788,0.651,21.788z"/>
	</g>
</g>
<g>
	<g>
		<path fill="#FFFFFF" d="M9.884,32c-0.359,0-0.651-0.291-0.651-0.65V15.504c0-0.359,0.292-0.651,0.651-0.651
			c0.359,0,0.651,0.292,0.651,0.651V31.35C10.535,31.709,10.243,32,9.884,32z"/>
		<path fill="#FFFFFF" d="M9.884,32.5c-0.635,0-1.151-0.516-1.151-1.15V15.504c0-0.635,0.516-1.151,1.151-1.151
			s1.151,0.516,1.151,1.151V31.35C11.035,31.984,10.519,32.5,9.884,32.5z M9.884,15.353c-0.083,0-0.151,0.068-0.151,0.151V31.35
			c0,0.166,0.302,0.165,0.302,0V15.504C10.035,15.421,9.967,15.353,9.884,15.353z"/>
	</g>
	<g>
		<path fill="#FFFFFF" d="M9.884,32.5c-0.635,0-1.151-0.516-1.151-1.15V15.504c0-0.635,0.516-1.151,1.151-1.151
			s1.151,0.516,1.151,1.151V31.35C11.035,31.984,10.519,32.5,9.884,32.5z M9.884,15.353c-0.083,0-0.151,0.068-0.151,0.151V31.35
			c0,0.166,0.302,0.165,0.302,0V15.504C10.035,15.421,9.967,15.353,9.884,15.353z"/>
		<path fill="#FFFFFF" d="M9.884,33c-0.91,0-1.651-0.74-1.651-1.65V15.504c0-0.91,0.741-1.651,1.651-1.651
			c0.911,0,1.651,0.741,1.651,1.651V31.35C11.535,32.26,10.794,33,9.884,33z M9.352,31.724C9.469,31.891,9.664,32,9.884,32
			c0.357,0,0.649-0.289,0.651-0.646c-0.001,0.197-0.094,0.376-0.253,0.492c-0.113,0.082-0.254,0.127-0.399,0.127l0,0
			c-0.179,0-0.352-0.069-0.472-0.19L9.352,31.724z M9.884,14.853c-0.359,0-0.651,0.292-0.651,0.651V31.35
			c0,0.049,0.005,0.097,0.016,0.144l-0.016-0.146V15.504C9.233,15.145,9.525,14.853,9.884,14.853c0.359,0,0.651,0.292,0.651,0.651
			C10.535,15.145,10.243,14.853,9.884,14.853z"/>
	</g>
</g>
<g>
	<g>
		<path fill="#FFFFFF" d="M19.117,32c-0.359,0-0.65-0.291-0.65-0.65V10.223c0-0.359,0.291-0.651,0.65-0.651s0.65,0.292,0.65,0.651
			V31.35C19.768,31.709,19.477,32,19.117,32z"/>
		<path fill="#FFFFFF" d="M19.117,32.5c-0.635,0-1.15-0.516-1.15-1.15V10.223c0-0.635,0.516-1.151,1.15-1.151s1.15,0.516,1.15,1.151
			V31.35C20.268,31.984,19.752,32.5,19.117,32.5z M19.117,10.072c-0.083,0-0.15,0.068-0.15,0.151V31.35c0,0.166,0.301,0.166,0.301,0
			V10.223C19.268,10.14,19.2,10.072,19.117,10.072z"/>
	</g>
	<g>
		<path fill="#FFFFFF" d="M19.117,32.5c-0.635,0-1.15-0.516-1.15-1.15V10.223c0-0.635,0.516-1.151,1.15-1.151s1.15,0.516,1.15,1.151
			V31.35C20.268,31.984,19.752,32.5,19.117,32.5z M19.117,10.072c-0.083,0-0.15,0.068-0.15,0.151V31.35c0,0.166,0.301,0.166,0.301,0
			V10.223C19.268,10.14,19.2,10.072,19.117,10.072z"/>
		<path fill="#FFFFFF" d="M19.117,33c-0.91,0-1.65-0.74-1.65-1.65V10.223c0-0.91,0.74-1.651,1.65-1.651s1.65,0.741,1.65,1.651V31.35
			C20.768,32.26,20.027,33,19.117,33z M18.467,31.35c0,0.358,0.292,0.65,0.65,0.65s0.65-0.292,0.65-0.65
			c0,0.351-0.286,0.625-0.65,0.625S18.467,31.7,18.467,31.35z M19.117,9.572c-0.358,0-0.65,0.292-0.65,0.651V31.35V10.223
			C18.467,9.864,18.759,9.572,19.117,9.572s0.65,0.292,0.65,0.651C19.768,9.864,19.476,9.572,19.117,9.572z"/>
	</g>
</g>
<g>
	<g>
		<path fill="#FFFFFF" d="M28.35,32c-0.358,0-0.649-0.291-0.649-0.65V0.651C27.699,0.292,27.99,0,28.35,0C28.71,0,29,0.292,29,0.651
			V31.35C29,31.709,28.709,32,28.35,32z"/>
		<path fill="#FFFFFF" d="M28.35,32.5c-0.634,0-1.149-0.516-1.149-1.15V0.651c-0.001-0.306,0.118-0.595,0.336-0.813
			C27.753-0.38,28.042-0.5,28.35-0.5c0.635,0,1.15,0.516,1.15,1.151V31.35C29.5,31.984,28.984,32.5,28.35,32.5z M28.35,0.5
			c-0.051,0-0.086,0.024-0.105,0.044C28.224,0.564,28.2,0.599,28.2,0.649v30.7c-0.001,0.166,0.299,0.164,0.3,0V0.651
			C28.5,0.568,28.433,0.5,28.35,0.5z"/>
	</g>
	<g>
		<path fill="#FFFFFF" d="M28.35,32.5c-0.634,0-1.149-0.516-1.149-1.15V0.651c-0.001-0.306,0.118-0.595,0.336-0.813
			C27.753-0.38,28.042-0.5,28.35-0.5c0.635,0,1.15,0.516,1.15,1.151V31.35C29.5,31.984,28.984,32.5,28.35,32.5z M28.35,0.5
			c-0.051,0-0.086,0.024-0.105,0.044C28.224,0.564,28.2,0.599,28.2,0.649v30.7c-0.001,0.166,0.299,0.164,0.3,0V0.651
			C28.5,0.568,28.433,0.5,28.35,0.5z"/>
		<path fill="#FFFFFF" d="M28.35,33c-0.909,0-1.649-0.74-1.649-1.65V0.651c-0.001-0.439,0.17-0.854,0.482-1.167
			C27.493-0.828,27.908-1,28.35-1C29.26-1,30-0.259,30,0.651V31.35C30,32.26,29.26,33,28.35,33z M27.818,31.724
			C27.937,31.891,28.13,32,28.35,32c0.358,0,0.65-0.292,0.65-0.65c-0.002,0.352-0.288,0.624-0.651,0.624l0,0
			c-0.179,0-0.351-0.069-0.471-0.19L27.818,31.724z M27.751,0.396C27.718,0.476,27.7,0.561,27.7,0.649v30.7
			c0,0.049,0.005,0.096,0.016,0.141L27.7,31.347V0.649C27.7,0.561,27.718,0.476,27.751,0.396z M28.35,0C28.708,0,29,0.292,29,0.651
			C29,0.292,28.708,0,28.35,0c-0.001,0-0.001,0-0.002,0C28.349,0,28.349,0,28.35,0z"/>
	</g>
</g>
</svg>
