<?xml version="1.0" encoding="utf-8"?>
<!DOCTYPE svg PUBLIC "-//W3C//DTD SVG 1.1//EN" "http://www.w3.org/Graphics/SVG/1.1/DTD/svg11.dtd">
<svg version="1.1" id="Layer_1" xmlns="http://www.w3.org/2000/svg" xmlns:xlink="http://www.w3.org/1999/xlink" x="0px" y="0px"
	 width="353.766px" height="82.5px" viewBox="0 0 353.766 82.5" enable-background="new 0 0 353.766 82.5" xml:space="preserve">
<g>
	<g>
		<defs>
			<rect id="SVGID_1_" x="-22.235" y="-24" width="400" height="122"/>
		</defs>
		<clipPath id="SVGID_2_">
			<use xlink:href="#SVGID_1_"  overflow="visible"/>
		</clipPath>
		<path clip-path="url(#SVGID_2_)" fill="#024594" d="M0,0.454h13.476c4.573,0,8.122,1.645,10.644,4.934
			c2.249,2.968,3.374,6.77,3.374,11.406c0,3.58-0.664,6.816-1.993,9.707c-2.34,5.111-6.363,7.665-12.069,7.665H0V0.454z
			 M12.579,30.265c1.511,0,2.752-0.161,3.726-0.482c1.734-0.597,3.155-1.744,4.263-3.442c0.883-1.362,1.519-3.106,1.908-5.233
			c0.224-1.269,0.336-2.447,0.336-3.534c0-4.177-0.813-7.42-2.435-9.73c-1.624-2.31-4.237-3.466-7.843-3.466H4.613v25.887H12.579z"
			/>
	</g>
	<g>
		<defs>
			<rect id="SVGID_3_" x="-22.235" y="-24" width="400" height="122"/>
		</defs>
		<clipPath id="SVGID_4_">
			<use xlink:href="#SVGID_3_"  overflow="visible"/>
		</clipPath>
		<path clip-path="url(#SVGID_4_)" fill="#024594" d="M48.367,10.265c1.626,0.818,2.866,1.878,3.717,3.178
			c0.822,1.24,1.368,2.685,1.643,4.338c0.244,1.132,0.365,2.937,0.365,5.416H36.214c0.076,2.501,0.661,4.507,1.754,6.018
			c1.093,1.511,2.785,2.266,5.077,2.266c2.141,0,3.849-0.714,5.124-2.144c0.713-0.829,1.22-1.79,1.517-2.881h4.062
			c-0.106,0.902-0.463,1.908-1.066,3.017c-0.605,1.11-1.278,2.016-2.022,2.72c-1.246,1.224-2.787,2.05-4.624,2.478
			c-0.987,0.245-2.103,0.368-3.348,0.368c-3.041,0-5.618-1.114-7.731-3.339c-2.114-2.227-3.17-5.344-3.17-9.352
			c0-3.948,1.064-7.153,3.193-9.616s4.911-3.695,8.348-3.695C45.059,9.037,46.739,9.447,48.367,10.265 M49.846,19.915
			c-0.167-1.79-0.555-3.22-1.161-4.292c-1.122-1.988-2.996-2.983-5.62-2.983c-1.882,0-3.459,0.685-4.734,2.054
			c-1.273,1.369-1.949,3.11-2.024,5.221H49.846z"/>
	</g>
	<g>
		<defs>
			<rect id="SVGID_5_" x="-22.235" y="-24" width="400" height="122"/>
		</defs>
		<clipPath id="SVGID_6_">
			<use xlink:href="#SVGID_5_"  overflow="visible"/>
		</clipPath>
		<path clip-path="url(#SVGID_6_)" fill="#024594" d="M63.455,9.588v16.317c0,1.255,0.194,2.28,0.581,3.075
			c0.715,1.469,2.049,2.203,4.001,2.203c2.801,0,4.708-1.285,5.722-3.855c0.551-1.377,0.826-3.266,0.826-5.669V9.588h4.131v24.579
			h-3.9l0.046-3.626c-0.526,0.933-1.179,1.721-1.96,2.363c-1.547,1.286-3.423,1.928-5.63,1.928c-3.438,0-5.779-1.17-7.025-3.511
			c-0.676-1.254-1.014-2.93-1.014-5.026V9.588H63.455z"/>
	</g>
	<g>
		<defs>
			<rect id="SVGID_7_" x="-22.235" y="-24" width="400" height="122"/>
		</defs>
		<clipPath id="SVGID_8_">
			<use xlink:href="#SVGID_7_"  overflow="visible"/>
		</clipPath>
		<path clip-path="url(#SVGID_8_)" fill="#024594" d="M86.289,2.726h4.177v6.862h3.925v3.373h-3.925v16.042
			c0,0.857,0.29,1.431,0.872,1.721c0.321,0.169,0.856,0.252,1.606,0.252c0.199,0,0.413-0.004,0.643-0.015
			c0.229-0.009,0.497-0.035,0.804-0.076v3.281c-0.476,0.138-0.969,0.237-1.48,0.299c-0.513,0.061-1.067,0.092-1.664,0.092
			c-1.928,0-3.235-0.494-3.924-1.48c-0.689-0.988-1.033-2.268-1.033-3.845V12.961h-3.328V9.588h3.328V2.726z"/>
	</g>
	<g>
		<defs>
			<rect id="SVGID_9_" x="-22.235" y="-24" width="400" height="122"/>
		</defs>
		<clipPath id="SVGID_10_">
			<use xlink:href="#SVGID_9_"  overflow="visible"/>
		</clipPath>
		<path clip-path="url(#SVGID_10_)" fill="#024594" d="M100.977,26.456c0.125,1.377,0.476,2.433,1.054,3.167
			c1.062,1.331,2.904,1.997,5.528,1.997c1.561,0,2.935-0.333,4.122-0.999c1.187-0.665,1.779-1.694,1.779-3.086
			c0-1.056-0.474-1.859-1.422-2.41c-0.606-0.336-1.804-0.727-3.592-1.17l-3.335-0.827c-2.13-0.52-3.701-1.101-4.711-1.744
			c-1.804-1.116-2.706-2.662-2.706-4.636c0-2.325,0.849-4.207,2.547-5.645c1.697-1.438,3.981-2.157,6.849-2.157
			c3.752,0,6.458,1.086,8.116,3.259c1.04,1.376,1.543,2.861,1.514,4.452h-3.901c-0.079-0.929-0.415-1.773-1.01-2.534
			c-0.972-1.08-2.655-1.62-5.052-1.62c-1.598,0-2.808,0.297-3.63,0.891c-0.821,0.595-1.232,1.38-1.232,2.356
			c0,1.067,0.54,1.921,1.621,2.561c0.623,0.381,1.543,0.717,2.759,1.008l2.782,0.665c3.023,0.72,5.05,1.416,6.08,2.089
			c1.605,1.055,2.408,2.716,2.408,4.98c0,2.188-0.84,4.077-2.521,5.668c-1.68,1.591-4.24,2.387-7.679,2.387
			c-3.702,0-6.324-0.83-7.865-2.49c-1.541-1.66-2.366-3.714-2.475-6.162H100.977z"/>
	</g>
	<g>
		<defs>
			<rect id="SVGID_11_" x="-22.235" y="-24" width="400" height="122"/>
		</defs>
		<clipPath id="SVGID_12_">
			<use xlink:href="#SVGID_11_"  overflow="visible"/>
		</clipPath>
		<path clip-path="url(#SVGID_12_)" fill="#024594" d="M138.257,10.896c1.736,1.347,2.78,3.665,3.134,6.954h-4.017
			c-0.245-1.515-0.804-2.773-1.676-3.775c-0.872-1.002-2.271-1.504-4.199-1.504c-2.632,0-4.513,1.284-5.646,3.851
			c-0.735,1.666-1.103,3.721-1.103,6.166c0,2.46,0.521,4.531,1.562,6.212c1.041,1.68,2.677,2.521,4.912,2.521
			c1.713,0,3.069-0.522,4.072-1.566c1.002-1.044,1.694-2.473,2.077-4.286h4.017c-0.459,3.259-1.607,5.642-3.443,7.149
			c-1.836,1.507-4.184,2.26-7.045,2.26c-3.213,0-5.776-1.174-7.688-3.523c-1.913-2.348-2.868-5.282-2.868-8.801
			c0-4.314,1.048-7.672,3.144-10.075c2.096-2.401,4.766-3.603,8.01-3.603C134.268,8.876,136.521,9.55,138.257,10.896"/>
	</g>
	<g>
		<defs>
			<rect id="SVGID_13_" x="-22.235" y="-24" width="400" height="122"/>
		</defs>
		<clipPath id="SVGID_14_">
			<use xlink:href="#SVGID_13_"  overflow="visible"/>
		</clipPath>
		<path clip-path="url(#SVGID_14_)" fill="#024594" d="M145.521,0.339h4.131v12.576c0.978-1.239,1.859-2.111,2.639-2.616
			c1.332-0.872,2.991-1.308,4.98-1.308c3.563,0,5.98,1.247,7.252,3.741c0.688,1.361,1.033,3.251,1.033,5.668v15.766h-4.246V18.675
			c0-1.805-0.229-3.128-0.688-3.97c-0.75-1.346-2.158-2.019-4.223-2.019c-1.714,0-3.268,0.589-4.659,1.767
			c-1.392,1.178-2.088,3.404-2.088,6.678v13.035h-4.131V0.339L145.521,0.339z"/>
	</g>
	<g>
		<defs>
			<rect id="SVGID_15_" x="-22.235" y="-24" width="400" height="122"/>
		</defs>
		<clipPath id="SVGID_16_">
			<use xlink:href="#SVGID_15_"  overflow="visible"/>
		</clipPath>
		<path clip-path="url(#SVGID_16_)" fill="#024594" d="M186.842,10.265c1.626,0.818,2.866,1.878,3.718,3.178
			c0.821,1.24,1.367,2.685,1.644,4.338c0.243,1.132,0.363,2.937,0.363,5.416H174.69c0.076,2.501,0.66,4.507,1.754,6.018
			c1.093,1.511,2.785,2.266,5.077,2.266c2.142,0,3.85-0.714,5.123-2.144c0.714-0.829,1.221-1.79,1.518-2.881h4.063
			c-0.106,0.902-0.463,1.908-1.066,3.017c-0.604,1.11-1.278,2.016-2.021,2.72c-1.246,1.224-2.787,2.05-4.624,2.478
			c-0.987,0.245-2.104,0.368-3.349,0.368c-3.04,0-5.617-1.114-7.731-3.339c-2.113-2.227-3.17-5.344-3.17-9.352
			c0-3.948,1.064-7.153,3.193-9.616s4.912-3.695,8.348-3.695C183.535,9.037,185.215,9.447,186.842,10.265 M188.322,19.915
			c-0.167-1.79-0.555-3.22-1.161-4.292c-1.122-1.988-2.996-2.983-5.62-2.983c-1.882,0-3.459,0.685-4.733,2.054
			c-1.274,1.369-1.95,3.11-2.025,5.221H188.322z"/>
	</g>
	<g>
		<defs>
			<rect id="SVGID_17_" x="-22.235" y="-24" width="400" height="122"/>
		</defs>
		<clipPath id="SVGID_18_">
			<use xlink:href="#SVGID_17_"  overflow="visible"/>
		</clipPath>
		<path clip-path="url(#SVGID_18_)" fill="#024594" d="M211.293,0.454h14.576c3.974,0,6.8,1.178,8.479,3.534
			c0.984,1.393,1.478,2.999,1.478,4.819c0,2.127-0.604,3.872-1.812,5.233c-0.628,0.719-1.531,1.377-2.709,1.974
			c1.729,0.658,3.021,1.399,3.879,2.226c1.514,1.468,2.271,3.496,2.271,6.081c0,2.173-0.685,4.139-2.055,5.898
			c-2.047,2.632-5.303,3.947-9.768,3.947h-14.34V0.454L211.293,0.454z M224.163,14.705c1.948,0,3.464-0.267,4.546-0.803
			c1.7-0.841,2.553-2.356,2.553-4.544c0-2.203-0.906-3.687-2.715-4.452c-1.021-0.428-2.534-0.642-4.545-0.642h-8.231v10.441H224.163
			z M225.707,30.265c2.826,0,4.843-0.811,6.047-2.433c0.758-1.025,1.137-2.264,1.137-3.717c0-2.448-1.105-4.116-3.313-5.003
			c-1.175-0.474-2.726-0.712-4.656-0.712h-9.149v11.865H225.707L225.707,30.265z"/>
	</g>
	<g>
		<defs>
			<rect id="SVGID_19_" x="-22.235" y="-24" width="400" height="122"/>
		</defs>
		<clipPath id="SVGID_20_">
			<use xlink:href="#SVGID_19_"  overflow="visible"/>
		</clipPath>
		<path clip-path="url(#SVGID_20_)" fill="#024594" d="M255.378,19.292c0.949-0.122,1.584-0.52,1.906-1.192
			c0.183-0.368,0.275-0.898,0.275-1.589c0-1.413-0.501-2.438-1.501-3.076c-1-0.637-2.434-0.956-4.295-0.956
			c-2.151,0-3.681,0.585-4.58,1.753c-0.505,0.646-0.832,1.607-0.984,2.883h-3.856c0.076-3.038,1.061-5.151,2.945-6.34
			c1.888-1.189,4.077-1.784,6.568-1.784c2.887,0,5.231,0.551,7.037,1.652c1.787,1.102,2.682,2.816,2.682,5.141v14.161
			c0,0.428,0.087,0.773,0.263,1.032c0.177,0.26,0.547,0.39,1.113,0.39c0.184,0,0.391-0.012,0.62-0.035
			c0.229-0.023,0.474-0.057,0.733-0.103v3.052c-0.644,0.184-1.133,0.298-1.47,0.344c-0.336,0.046-0.795,0.069-1.377,0.069
			c-1.422,0-2.455-0.505-3.097-1.514c-0.337-0.536-0.575-1.293-0.711-2.272c-0.842,1.102-2.051,2.058-3.627,2.869
			c-1.575,0.81-3.313,1.216-5.209,1.216c-2.281,0-4.145-0.692-5.588-2.075c-1.446-1.383-2.169-3.113-2.169-5.192
			c0-2.276,0.712-4.041,2.134-5.294c1.424-1.253,3.29-2.025,5.599-2.315L255.378,19.292z M246.68,30.451
			c0.873,0.687,1.904,1.03,3.1,1.03c1.453,0,2.859-0.336,4.222-1.008c2.295-1.115,3.443-2.94,3.443-5.476v-3.322
			c-0.504,0.322-1.154,0.591-1.947,0.805c-0.794,0.216-1.573,0.369-2.337,0.46l-2.496,0.321c-1.496,0.199-2.622,0.512-3.376,0.94
			c-1.276,0.717-1.916,1.862-1.916,3.434C245.373,28.825,245.81,29.764,246.68,30.451"/>
	</g>
	<g>
		<defs>
			<rect id="SVGID_21_" x="-22.235" y="-24" width="400" height="122"/>
		</defs>
		<clipPath id="SVGID_22_">
			<use xlink:href="#SVGID_21_"  overflow="visible"/>
		</clipPath>
		<path clip-path="url(#SVGID_22_)" fill="#024594" d="M268.345,9.588h3.924v3.488c1.163-1.438,2.394-2.47,3.693-3.098
			c1.302-0.627,2.746-0.941,4.339-0.941c3.487,0,5.845,1.217,7.067,3.649c0.673,1.331,1.01,3.236,1.01,5.715v15.766h-4.198V18.676
			c0-1.499-0.224-2.708-0.665-3.626c-0.734-1.53-2.066-2.295-3.994-2.295c-0.979,0-1.782,0.1-2.409,0.298
			c-1.133,0.337-2.127,1.01-2.984,2.02c-0.688,0.811-1.136,1.649-1.343,2.513c-0.206,0.864-0.309,2.1-0.309,3.706v12.875h-4.131
			V9.588L268.345,9.588z"/>
	</g>
	<g>
		<defs>
			<rect id="SVGID_23_" x="-22.235" y="-24" width="400" height="122"/>
		</defs>
		<clipPath id="SVGID_24_">
			<use xlink:href="#SVGID_23_"  overflow="visible"/>
		</clipPath>
		<polygon clip-path="url(#SVGID_24_)" fill="#024594" points="294.392,0.454 298.364,0.454 298.364,20.028 308.956,9.588
			314.233,9.588 304.787,18.726 314.762,34.166 309.486,34.166 301.755,21.659 298.364,24.941 298.364,34.166 294.392,34.166 		"/>
	</g>
	<g>
		<defs>
			<rect id="SVGID_25_" x="-22.235" y="-24" width="400" height="122"/>
		</defs>
		<clipPath id="SVGID_26_">
			<use xlink:href="#SVGID_25_"  overflow="visible"/>
		</clipPath>
		<path clip-path="url(#SVGID_26_)" fill="#0098DB" d="M11.231,74.704c-1.826,0-3.457-0.304-4.891-0.911
			c-1.435-0.605-2.609-1.461-3.528-2.563c-0.918-1.102-1.617-2.402-2.096-3.908C0.239,65.82,0,64.16,0,62.346
			c0-3.804,0.98-6.822,2.94-9.057c1.961-2.234,4.729-3.352,8.307-3.352c3.514,0,6.252,1.125,8.218,3.375
			c1.967,2.25,2.949,5.268,2.949,9.047c0,1.773-0.242,3.408-0.725,4.908c-0.484,1.498-1.186,2.801-2.104,3.906
			c-0.919,1.105-2.092,1.973-3.521,2.594C14.636,74.393,13.025,74.704,11.231,74.704 M11.231,73.012
			c1.977,0,3.639-0.451,4.986-1.354c1.349-0.901,2.338-2.141,2.966-3.713c0.629-1.574,0.942-3.445,0.942-5.615
			c0-3.395-0.752-6.021-2.256-7.88s-3.712-2.788-6.623-2.788c-2.933,0-5.164,0.927-6.694,2.779c-1.53,1.854-2.297,4.482-2.297,7.889
			c0,3.298,0.761,5.902,2.28,7.814C6.056,72.057,8.288,73.012,11.231,73.012"/>
	</g>
	<g>
		<defs>
			<rect id="SVGID_27_" x="-22.235" y="-24" width="400" height="122"/>
		</defs>
		<clipPath id="SVGID_28_">
			<use xlink:href="#SVGID_27_"  overflow="visible"/>
		</clipPath>
		<path clip-path="url(#SVGID_28_)" fill="#0098DB" d="M26.684,74.333v-17.66h1.739l0.274,2.722
			c0.634-0.942,1.485-1.688,2.554-2.229c1.069-0.542,2.222-0.813,3.456-0.813c2.031,0,3.524,0.56,4.48,1.676
			c0.956,1.117,1.434,2.9,1.434,5.351v10.957h-2.014v-11.86c-0.054-1.568-0.387-2.697-0.999-3.385s-1.617-1.031-3.013-1.031
			c-1.602,0-2.909,0.403-3.925,1.209c-1.015,0.807-1.651,1.849-1.908,3.127c-0.043,0.504-0.065,1.03-0.065,1.578v10.36H26.684z"/>
	</g>
	<g>
		<defs>
			<rect id="SVGID_29_" x="-22.235" y="-24" width="400" height="122"/>
		</defs>
		<clipPath id="SVGID_30_">
			<use xlink:href="#SVGID_29_"  overflow="visible"/>
		</clipPath>
		<path clip-path="url(#SVGID_30_)" fill="#0098DB" d="M49.693,74.704c-1.482,0-2.567-0.336-3.255-1.009
			c-0.688-0.67-1.031-1.764-1.031-3.278V49.809l1.966-0.16v20.656c0,1.074,0.195,1.815,0.588,2.225
			c0.393,0.408,0.985,0.611,1.78,0.611c0.646,0,1.451-0.123,2.417-0.369l0.081,1.547C51.187,74.575,50.338,74.704,49.693,74.704"/>
	</g>
	<g>
		<defs>
			<rect id="SVGID_31_" x="-22.235" y="-24" width="400" height="122"/>
		</defs>
		<clipPath id="SVGID_32_">
			<use xlink:href="#SVGID_31_"  overflow="visible"/>
		</clipPath>
		<path clip-path="url(#SVGID_32_)" fill="#0098DB" d="M54.817,50.355h1.998v2.707h-1.998V50.355z M54.817,56.673h2.014v17.66
			h-2.014V56.673z"/>
	</g>
	<g>
		<defs>
			<rect id="SVGID_33_" x="-22.235" y="-24" width="400" height="122"/>
		</defs>
		<clipPath id="SVGID_34_">
			<use xlink:href="#SVGID_33_"  overflow="visible"/>
		</clipPath>
		<path clip-path="url(#SVGID_34_)" fill="#0098DB" d="M61.778,74.333v-17.66h1.74l0.273,2.722c0.634-0.942,1.485-1.688,2.555-2.229
			c1.068-0.542,2.221-0.813,3.456-0.813c2.03,0,3.523,0.56,4.479,1.676c0.956,1.117,1.434,2.9,1.434,5.351v10.957h-2.014v-11.86
			c-0.054-1.568-0.387-2.697-0.999-3.385s-1.617-1.031-3.013-1.031c-1.602,0-2.909,0.403-3.924,1.209
			c-1.016,0.807-1.652,1.849-1.909,3.127c-0.043,0.504-0.065,1.03-0.065,1.578v10.36H61.778z"/>
	</g>
	<g>
		<defs>
			<rect id="SVGID_35_" x="-22.235" y="-24" width="400" height="122"/>
		</defs>
		<clipPath id="SVGID_36_">
			<use xlink:href="#SVGID_35_"  overflow="visible"/>
		</clipPath>
		<path clip-path="url(#SVGID_36_)" fill="#0098DB" d="M87.496,74.721c-2.438,0-4.375-0.816-5.81-2.449
			c-1.434-1.633-2.15-3.847-2.15-6.64c0-2.696,0.7-4.903,2.104-6.623c1.4-1.718,3.214-2.604,5.438-2.657
			c2.073,0,3.738,0.74,4.995,2.224c1.257,1.481,1.885,3.47,1.885,5.962c0,0.097-0.003,0.293-0.008,0.588
			c-0.006,0.296-0.008,0.503-0.008,0.621H81.646c0.021,2.268,0.569,4.063,1.644,5.391c1.074,1.325,2.492,1.988,4.254,1.988
			c1.149,0,2.148-0.134,2.997-0.402c0.85-0.268,1.735-0.648,2.659-1.145l0.338,1.499C91.754,74.172,89.741,74.721,87.496,74.721
			 M81.727,64.134h10.055c0-1.967-0.425-3.473-1.273-4.521c-0.849-1.047-2.014-1.571-3.496-1.571c-1.505,0-2.719,0.56-3.642,1.677
			C82.447,60.836,81.898,62.309,81.727,64.134"/>
	</g>
	<g>
		<defs>
			<rect id="SVGID_37_" x="-22.235" y="-24" width="400" height="122"/>
		</defs>
		<clipPath id="SVGID_38_">
			<use xlink:href="#SVGID_37_"  overflow="visible"/>
		</clipPath>
		<path clip-path="url(#SVGID_38_)" fill="#0098DB" d="M105.977,74.333V50.355h6.542c2.976,0,5.147,0.494,6.518,1.482
			c1.371,0.988,2.054,2.492,2.054,4.512c0,0.236-0.002,0.414-0.008,0.531c-0.005,0.119-0.028,0.354-0.071,0.701
			c-0.044,0.35-0.109,0.643-0.201,0.879c-0.093,0.236-0.234,0.527-0.429,0.878c-0.192,0.349-0.425,0.653-0.7,0.91
			c-0.273,0.258-0.632,0.519-1.07,0.78c-0.442,0.265-0.942,0.482-1.5,0.654c1.676,0.246,2.961,0.918,3.851,2.014
			c0.894,1.096,1.338,2.391,1.338,3.883c0,2.117-0.672,3.771-2.013,4.963c-1.344,1.193-3.407,1.789-6.188,1.789L105.977,74.333
			L105.977,74.333z M108.04,61.04h5.495c0.848,0,1.579-0.063,2.191-0.192c0.611-0.13,1.168-0.357,1.668-0.687
			c0.5-0.327,0.875-0.794,1.127-1.401c0.254-0.607,0.379-1.361,0.379-2.265c0-1.677-0.519-2.839-1.555-3.488
			c-1.037-0.649-2.678-0.975-4.923-0.975h-4.383V61.04z M108.04,72.723h5.527c4.35,0,6.525-1.714,6.525-5.142
			c0-1.856-0.601-3.149-1.804-3.875c-1.204-0.726-3.089-1.088-5.657-1.088h-4.592V72.723z"/>
	</g>
	<g>
		<defs>
			<rect id="SVGID_39_" x="-22.235" y="-24" width="400" height="122"/>
		</defs>
		<clipPath id="SVGID_40_">
			<use xlink:href="#SVGID_39_"  overflow="visible"/>
		</clipPath>
		<path clip-path="url(#SVGID_40_)" fill="#0098DB" d="M130.518,74.721c-1.665,0-2.998-0.42-3.997-1.258s-1.498-2.035-1.498-3.593
			c0-0.925,0.199-1.728,0.596-2.409c0.398-0.684,0.976-1.234,1.733-1.66c0.756-0.424,1.622-0.754,2.593-0.99
			c0.973-0.235,2.104-0.402,3.393-0.5c1.374-0.086,2.395-0.154,3.061-0.209v-1.965c0-1.355-0.309-2.373-0.925-3.055
			c-0.619-0.684-1.61-1.023-2.974-1.023c-1.869,0-3.615,0.446-5.236,1.336c-0.043-0.104-0.144-0.34-0.299-0.699
			s-0.266-0.637-0.329-0.829c0.664-0.431,1.534-0.79,2.608-1.079c1.074-0.291,2.127-0.436,3.158-0.436
			c2.117,0,3.637,0.453,4.561,1.36c0.925,0.908,1.387,2.517,1.387,4.826v11.795h-1.564c-0.054-0.247-0.131-0.735-0.232-1.467
			c-0.103-0.729-0.154-1.104-0.154-1.128C135.014,73.727,133.053,74.721,130.518,74.721 M130.582,73.124
			c1.375,0,2.598-0.405,3.666-1.216c1.068-0.813,1.771-1.938,2.104-3.377v-3.014c-1.547,0.129-2.327,0.193-2.337,0.193
			c-2.621,0.236-4.442,0.667-5.463,1.289c-1.021,0.624-1.53,1.591-1.53,2.9c0,1.074,0.325,1.881,0.975,2.418
			S129.508,73.124,130.582,73.124"/>
	</g>
	<g>
		<defs>
			<rect id="SVGID_41_" x="-22.235" y="-24" width="400" height="122"/>
		</defs>
		<clipPath id="SVGID_42_">
			<use xlink:href="#SVGID_41_"  overflow="visible"/>
		</clipPath>
		<path clip-path="url(#SVGID_42_)" fill="#0098DB" d="M143.151,74.333v-17.66h1.74l0.273,2.722
			c0.633-0.942,1.485-1.688,2.553-2.229c1.07-0.542,2.222-0.813,3.456-0.813c2.032,0,3.524,0.56,4.481,1.676
			c0.955,1.117,1.434,2.9,1.434,5.351v10.957h-2.014v-11.86c-0.055-1.568-0.387-2.697-1-3.385c-0.611-0.688-1.616-1.031-3.013-1.031
			c-1.601,0-2.908,0.403-3.924,1.209c-1.015,0.807-1.651,1.849-1.909,3.127c-0.043,0.504-0.064,1.03-0.064,1.578v10.36H143.151z"/>
	</g>
	<g>
		<defs>
			<rect id="SVGID_43_" x="-22.235" y="-24" width="400" height="122"/>
		</defs>
		<clipPath id="SVGID_44_">
			<use xlink:href="#SVGID_43_"  overflow="visible"/>
		</clipPath>
		<path clip-path="url(#SVGID_44_)" fill="#0098DB" d="M161.745,74.333V49.809l1.982-0.16V63.65v1.531
			c0.097-0.119,0.44-0.5,1.031-1.146s0.925-1.009,0.999-1.097l6.106-6.268h2.692l-7.397,7.381l7.912,10.279h-2.529l-6.752-9.152
			l-2.063,1.901v7.251L161.745,74.333L161.745,74.333z"/>
	</g>
	<g>
		<defs>
			<rect id="SVGID_45_" x="-22.235" y="-24" width="400" height="122"/>
		</defs>
		<clipPath id="SVGID_46_">
			<use xlink:href="#SVGID_45_"  overflow="visible"/>
		</clipPath>
		<path clip-path="url(#SVGID_46_)" fill="#0098DB" d="M177.809,50.355h1.999v2.707h-1.999V50.355z M177.809,56.673h2.014v17.66
			h-2.014V56.673L177.809,56.673z"/>
	</g>
	<g>
		<defs>
			<rect id="SVGID_47_" x="-22.235" y="-24" width="400" height="122"/>
		</defs>
		<clipPath id="SVGID_48_">
			<use xlink:href="#SVGID_47_"  overflow="visible"/>
		</clipPath>
		<path clip-path="url(#SVGID_48_)" fill="#0098DB" d="M184.771,74.333v-17.66h1.74l0.272,2.722
			c0.635-0.942,1.486-1.688,2.555-2.229s2.222-0.813,3.455-0.813c2.031,0,3.523,0.56,4.48,1.676c0.955,1.117,1.435,2.9,1.435,5.351
			v10.957h-2.015v-11.86c-0.055-1.568-0.387-2.697-1-3.385c-0.61-0.688-1.615-1.031-3.012-1.031c-1.603,0-2.908,0.403-3.925,1.209
			c-1.016,0.807-1.651,1.849-1.909,3.127c-0.043,0.504-0.064,1.03-0.064,1.578v10.36H184.771z"/>
	</g>
	<g>
		<defs>
			<rect id="SVGID_49_" x="-22.235" y="-24" width="400" height="122"/>
		</defs>
		<clipPath id="SVGID_50_">
			<use xlink:href="#SVGID_49_"  overflow="visible"/>
		</clipPath>
		<path clip-path="url(#SVGID_50_)" fill="#0098DB" d="M206.056,82.534l-0.242-1.788h3.738c0.827,0,1.559-0.072,2.19-0.219
			c0.635-0.145,1.17-0.332,1.604-0.563c0.436-0.23,0.807-0.554,1.112-0.967c0.306-0.414,0.545-0.825,0.718-1.232
			c0.172-0.408,0.303-0.938,0.395-1.588c0.092-0.648,0.146-1.246,0.168-1.787c0.021-0.543,0.033-1.229,0.033-2.056
			c0,0.118-0.012,0.093-0.033-0.08l-0.08-1.11c-0.676,1.02-1.477,1.807-2.399,2.358c-0.925,0.554-2.054,0.83-3.386,0.83
			c-1.053,0-2.01-0.188-2.875-0.563c-0.864-0.375-1.574-0.865-2.127-1.467c-0.552-0.602-1.018-1.289-1.395-2.063
			c-0.375-0.773-0.646-1.545-0.806-2.313c-0.161-0.768-0.241-1.526-0.241-2.28c0-0.943,0.077-1.845,0.233-2.697
			c0.155-0.854,0.426-1.689,0.813-2.506c0.387-0.817,0.871-1.522,1.451-2.119c0.579-0.596,1.325-1.074,2.237-1.434
			c0.914-0.361,1.945-0.539,3.095-0.539c1.129,0,2.125,0.221,2.989,0.668c0.865,0.444,1.668,1.156,2.408,2.135l0.193-2.481h1.772
			v16.371c0,0.709-0.008,1.281-0.024,1.716c-0.017,0.436-0.08,1.026-0.193,1.771c-0.111,0.748-0.268,1.361-0.467,1.838
			c-0.199,0.479-0.502,1.007-0.91,1.587s-0.9,1.037-1.475,1.37c-0.575,0.333-1.312,0.617-2.207,0.854
			c-0.896,0.235-1.916,0.354-3.056,0.354H206.056L206.056,82.534z M210.132,72.706c0.785,0,1.494-0.127,2.127-0.379
			c0.636-0.253,1.158-0.586,1.572-0.999c0.414-0.414,0.762-0.898,1.047-1.458s0.486-1.138,0.604-1.731
			c0.119-0.598,0.178-1.211,0.178-1.847v-1.836c0-0.838-0.102-1.628-0.307-2.369c-0.203-0.741-0.519-1.426-0.941-2.055
			c-0.424-0.628-1.008-1.125-1.748-1.49c-0.742-0.364-1.602-0.548-2.578-0.548c-0.795,0-1.512,0.152-2.151,0.459
			s-1.162,0.712-1.57,1.217s-0.752,1.096-1.031,1.771c-0.278,0.677-0.475,1.369-0.588,2.07c-0.113,0.704-0.17,1.426-0.17,2.168
			c0,0.655,0.051,1.291,0.154,1.909c0.102,0.617,0.283,1.243,0.547,1.877c0.264,0.636,0.6,1.185,1.008,1.651
			c0.408,0.468,0.941,0.849,1.604,1.145C208.546,72.559,209.294,72.706,210.132,72.706"/>
	</g>
	<g>
		<defs>
			<rect id="SVGID_51_" x="-22.235" y="-24" width="400" height="122"/>
		</defs>
		<clipPath id="SVGID_52_">
			<use xlink:href="#SVGID_51_"  overflow="visible"/>
		</clipPath>
	</g>
	<g>
		<defs>
			<rect id="SVGID_53_" x="-22.235" y="-24" width="400" height="122"/>
		</defs>
		<clipPath id="SVGID_54_">
			<use xlink:href="#SVGID_53_"  overflow="visible"/>
		</clipPath>
	</g>
	<g>
		<defs>
			<rect id="SVGID_55_" x="-22.235" y="-24" width="400" height="122"/>
		</defs>
		<clipPath id="SVGID_56_">
			<use xlink:href="#SVGID_55_"  overflow="visible"/>
		</clipPath>
	</g>
	<g>
		<defs>
			<rect id="SVGID_57_" x="-22.235" y="-24" width="400" height="122"/>
		</defs>
		<clipPath id="SVGID_58_">
			<use xlink:href="#SVGID_57_"  overflow="visible"/>
		</clipPath>
	</g>
	<g>
		<defs>
			<rect id="SVGID_59_" x="-22.235" y="-24" width="400" height="122"/>
		</defs>
		<clipPath id="SVGID_60_">
			<use xlink:href="#SVGID_59_"  overflow="visible"/>
		</clipPath>
	</g>
	<g>
		<defs>
			<rect id="SVGID_61_" x="-22.235" y="-24" width="400" height="122"/>
		</defs>
		<clipPath id="SVGID_62_">
			<use xlink:href="#SVGID_61_"  overflow="visible"/>
		</clipPath>
	</g>
	<g>
		<defs>
			<rect id="SVGID_63_" x="-22.235" y="-24" width="400" height="122"/>
		</defs>
		<clipPath id="SVGID_64_">
			<use xlink:href="#SVGID_63_"  overflow="visible"/>
		</clipPath>
	</g>
	<g>
		<defs>
			<rect id="SVGID_65_" x="-22.235" y="-24" width="400" height="122"/>
		</defs>
		<clipPath id="SVGID_66_">
			<use xlink:href="#SVGID_65_"  overflow="visible"/>
		</clipPath>
	</g>
</g>
</svg>