<?xml version="1.0" encoding="utf-8"?>
<!-- Generator: Adobe Illustrator 15.0.2, SVG Export Plug-In . SVG Version: 6.00 Build 0)  -->
<!DOCTYPE svg PUBLIC "-//W3C//DTD SVG 1.1//EN" "http://www.w3.org/Graphics/SVG/1.1/DTD/svg11.dtd">
<svg version="1.1" id="Layer_1" xmlns="http://www.w3.org/2000/svg" xmlns:xlink="http://www.w3.org/1999/xlink" x="0px" y="0px"
	 width="32px" height="32px" viewBox="0 0 32 32" enable-background="new 0 0 32 32" xml:space="preserve">
<path fill="#FFFFFF" d="M15.984,18.064c-0.57,0-1.032-0.461-1.032-1.031v-16c0-0.57,0.462-1.032,1.032-1.032
	c0.571,0,1.032,0.462,1.032,1.032v16C17.016,17.604,16.555,18.064,15.984,18.064z"/>
<path fill="#FFFFFF" d="M15.984,32C7.446,32,0.5,25.055,0.5,16.516c0-4.918,2.267-9.435,6.22-12.391
	c0.456-0.342,1.105-0.248,1.445,0.209C8.507,4.79,8.413,5.437,7.956,5.779c-3.427,2.563-5.393,6.476-5.393,10.739
	c0,7.398,6.02,13.418,13.419,13.418S29.4,23.916,29.4,16.518c0-4.262-1.965-8.175-5.393-10.739c-0.456-0.342-0.55-0.989-0.209-1.445
	c0.342-0.455,0.987-0.55,1.444-0.209c3.955,2.956,6.221,7.473,6.221,12.391C31.464,25.055,24.518,32,15.98,32H15.984z"/>
</svg>
