    <svg xmlns="http://www.w3.org/2000/svg" xmlns:xlink="http://www.w3.org/1999/xlink">
    <defs>
        <clipPath id="clip-Ico_Selfservice">
        <rect width="24" height="24"/>
        </clipPath>
    </defs>
    <symbol id="icon-username-arrow" viewBox="0 0 269 269">
        <title>username-arrow</title>
        <path d="m121.3,34.6c-1.6-1.6-4.2-1.6-5.8,0l-51,51.1-51.1-51.1c-1.6-1.6-4.2-1.6-5.8,0-1.6,1.6-1.6,4.2 0,5.8l53.9,53.9c0.8,0.8 1.8,1.2 2.9,1.2 1,0 2.1-0.4 2.9-1.2l53.9-53.9c1.7-1.6 1.7-4.2 0.1-5.8z" fill="#FFFFFF"/>
    </symbol>
    <symbol id="icon-accounts" viewBox="0 0 43 32">
        <title>accounts</title>
        <path d="M37.357 32h-31.329c-3.324 0-6.028-2.704-6.028-6.027v-19.945c0-3.324 2.704-6.028 6.028-6.028h31.33c3.324 0 6.027 2.704 6.027 6.028v19.945c0 3.323-2.703 6.027-6.028 6.027zM6.028 1.507c-2.493 0-4.521 2.028-4.521 4.521v19.945c0 2.492 2.028 4.521 4.521 4.521h31.33c2.492 0 4.521-2.028 4.521-4.521v-19.945c0-2.493-2.028-4.521-4.521-4.521h-31.33z"></path>
        <path d="M0.289 9.042h42.523v1.507h-42.523v-1.507z"></path>
    </symbol>
    <symbol id="icon-arrow-down" viewBox="0 0 32 32">
        <title>arrow-down</title>
        <path d="M16 32l16-32h-32l16 32z"></path>
    </symbol>
    <symbol id="icon-self-service" viewBox="0 0 24 24">
        <title>esage-icon</title>
        <g id="Ico_Selfservice" clip-path="url(#clip-Ico_Selfservice)">
            <g id="icoDYI" transform="translate(-54.053 -5456.292)">
            <g id="Group_2283" data-name="Group 2283">
                <path id="Path_10976" data-name="Path 10976" d="M66.667,5465.407a2.694,2.694,0,1,1,2.694-2.694A2.7,2.7,0,0,1,66.667,5465.407Zm0-4.888a2.194,2.194,0,1,0,2.194,2.194A2.2,2.2,0,0,0,66.667,5460.519Z" fill="#ffffff"/>
                <path id="Path_10977" data-name="Path 10977" d="M63.562,5473.348c-.546-.168-2.2-.826-2.632-1.617a2.082,2.082,0,0,1-.022-1.924c.128-.254.233-.5.334-.731l.084-.194c.6-1.384,1.33-3.074,3.561-3.074h3.627c2.248,0,2.987,1.705,3.581,3.075.069.158.144.323.222.494l.2.441a2.074,2.074,0,0,1-.027,1.912c-.467.857-2.4,1.54-2.624,1.615l-.162-.473a5.28,5.28,0,0,0,2.347-1.38,1.58,1.58,0,0,0,.014-1.459l-.2-.449c-.079-.173-.155-.34-.226-.5-.591-1.365-1.2-2.775-3.122-2.775H64.887c-1.9,0-2.507,1.4-3.091,2.747l-.1.22c-.1.241-.214.494-.346.757a1.583,1.583,0,0,0,.015,1.462,5.013,5.013,0,0,0,2.338,1.375Z" fill="#ffffff"/>
                <path id="Path_10978" data-name="Path 10978" d="M72.675,5476.292H60.727a.608.608,0,0,1-.674-.53v-.768a.608.608,0,0,1,.674-.53H72.694a.6.6,0,0,1,.655.53v.768A.608.608,0,0,1,72.675,5476.292Zm-12.117-.532a.6.6,0,0,0,.169.032H72.675a.261.261,0,0,0,.18-.058l-.006-.74a.347.347,0,0,0-.155-.03H60.727a.264.264,0,0,0-.181.057l.007.741Z" fill="#ffffff"/>
                <path id="Path_10979" data-name="Path 10979" d="M69.96,5474.035H63.44v-4.242c0-.377.471-.622.565-.668l.108-.024h5.174a.68.68,0,0,1,.673.67Zm-6.02-.5h5.52v-3.762a.177.177,0,0,0-.175-.172h-5.11a.627.627,0,0,0-.235.2Zm2.771-1.285h0a.673.673,0,1,1,.673-.673.681.681,0,0,1-.671.673Zm0-.846a.174.174,0,0,0-.173.174.167.167,0,0,0,.05.121.181.181,0,0,0,.3-.125A.172.172,0,0,0,66.711,5471.4Z" fill="#ffffff"/>
            </g>
            </g>
        </g>
    </symbol>
    <symbol id="icon-investments" viewBox="0 0 31 34">
        <g>
            <g>
                <path fill="#FFFFFF" d="M0.651,32C0.292,32,0,31.709,0,31.35v-8.912c0-0.358,0.292-0.649,0.651-0.649s0.651,0.291,0.651,0.649
                    v8.912C1.302,31.709,1.01,32,0.651,32z"/>
                <path fill="#FFFFFF" d="M0.651,32.5c-0.635,0-1.151-0.516-1.151-1.15v-8.912c0-0.634,0.516-1.149,1.151-1.149
                    s1.151,0.516,1.151,1.149v8.912C1.802,31.984,1.286,32.5,0.651,32.5z M0.651,22.288c-0.083,0-0.151,0.067-0.151,0.149v8.912
                    c0,0.166,0.302,0.166,0.302,0v-8.912C0.802,22.355,0.734,22.288,0.651,22.288z"/>
            </g>
            <g>
                <path fill="#FFFFFF" d="M0.651,32.5c-0.635,0-1.151-0.516-1.151-1.15v-8.912c0-0.634,0.516-1.149,1.151-1.149
                    s1.151,0.516,1.151,1.149v8.912C1.802,31.984,1.286,32.5,0.651,32.5z M0.651,22.288c-0.083,0-0.151,0.067-0.151,0.149v8.912
                    c0,0.166,0.302,0.166,0.302,0v-8.912C0.802,22.355,0.734,22.288,0.651,22.288z"/>
                <path fill="#FFFFFF" d="M0.651,33C-0.259,33-1,32.26-1,31.35v-8.912c0-0.909,0.741-1.649,1.651-1.649s1.651,0.74,1.651,1.649
                    v8.912C2.302,32.26,1.561,33,0.651,33z M0,31.352C0.001,31.709,0.292,32,0.651,32s0.65-0.291,0.651-0.648
                    c-0.001,0.35-0.287,0.623-0.651,0.623S0.001,31.701,0,31.352z M0.651,21.788C0.292,21.788,0,22.079,0,22.438v8.912v-8.912
                    C0,22.079,0.292,21.788,0.651,21.788s0.651,0.291,0.651,0.649C1.302,22.079,1.01,21.788,0.651,21.788z"/>
            </g>
        </g>
        <g>
            <g>
                <path fill="#FFFFFF" d="M9.884,32c-0.359,0-0.651-0.291-0.651-0.65V15.504c0-0.359,0.292-0.651,0.651-0.651
                    c0.359,0,0.651,0.292,0.651,0.651V31.35C10.535,31.709,10.243,32,9.884,32z"/>
                <path fill="#FFFFFF" d="M9.884,32.5c-0.635,0-1.151-0.516-1.151-1.15V15.504c0-0.635,0.516-1.151,1.151-1.151
                    s1.151,0.516,1.151,1.151V31.35C11.035,31.984,10.519,32.5,9.884,32.5z M9.884,15.353c-0.083,0-0.151,0.068-0.151,0.151V31.35
                    c0,0.166,0.302,0.165,0.302,0V15.504C10.035,15.421,9.967,15.353,9.884,15.353z"/>
            </g>
            <g>
                <path fill="#FFFFFF" d="M9.884,32.5c-0.635,0-1.151-0.516-1.151-1.15V15.504c0-0.635,0.516-1.151,1.151-1.151
                    s1.151,0.516,1.151,1.151V31.35C11.035,31.984,10.519,32.5,9.884,32.5z M9.884,15.353c-0.083,0-0.151,0.068-0.151,0.151V31.35
                    c0,0.166,0.302,0.165,0.302,0V15.504C10.035,15.421,9.967,15.353,9.884,15.353z"/>
                <path fill="#FFFFFF" d="M9.884,33c-0.91,0-1.651-0.74-1.651-1.65V15.504c0-0.91,0.741-1.651,1.651-1.651
                    c0.911,0,1.651,0.741,1.651,1.651V31.35C11.535,32.26,10.794,33,9.884,33z M9.352,31.724C9.469,31.891,9.664,32,9.884,32
                    c0.357,0,0.649-0.289,0.651-0.646c-0.001,0.197-0.094,0.376-0.253,0.492c-0.113,0.082-0.254,0.127-0.399,0.127l0,0
                    c-0.179,0-0.352-0.069-0.472-0.19L9.352,31.724z M9.884,14.853c-0.359,0-0.651,0.292-0.651,0.651V31.35
                    c0,0.049,0.005,0.097,0.016,0.144l-0.016-0.146V15.504C9.233,15.145,9.525,14.853,9.884,14.853c0.359,0,0.651,0.292,0.651,0.651
                    C10.535,15.145,10.243,14.853,9.884,14.853z"/>
            </g>
        </g>
        <g>
            <g>
                <path fill="#FFFFFF" d="M19.117,32c-0.359,0-0.65-0.291-0.65-0.65V10.223c0-0.359,0.291-0.651,0.65-0.651s0.65,0.292,0.65,0.651
                    V31.35C19.768,31.709,19.477,32,19.117,32z"/>
                <path fill="#FFFFFF" d="M19.117,32.5c-0.635,0-1.15-0.516-1.15-1.15V10.223c0-0.635,0.516-1.151,1.15-1.151s1.15,0.516,1.15,1.151
                    V31.35C20.268,31.984,19.752,32.5,19.117,32.5z M19.117,10.072c-0.083,0-0.15,0.068-0.15,0.151V31.35c0,0.166,0.301,0.166,0.301,0
                    V10.223C19.268,10.14,19.2,10.072,19.117,10.072z"/>
            </g>
            <g>
                <path fill="#FFFFFF" d="M19.117,32.5c-0.635,0-1.15-0.516-1.15-1.15V10.223c0-0.635,0.516-1.151,1.15-1.151s1.15,0.516,1.15,1.151
                    V31.35C20.268,31.984,19.752,32.5,19.117,32.5z M19.117,10.072c-0.083,0-0.15,0.068-0.15,0.151V31.35c0,0.166,0.301,0.166,0.301,0
                    V10.223C19.268,10.14,19.2,10.072,19.117,10.072z"/>
                <path fill="#FFFFFF" d="M19.117,33c-0.91,0-1.65-0.74-1.65-1.65V10.223c0-0.91,0.74-1.651,1.65-1.651s1.65,0.741,1.65,1.651V31.35
                    C20.768,32.26,20.027,33,19.117,33z M18.467,31.35c0,0.358,0.292,0.65,0.65,0.65s0.65-0.292,0.65-0.65
                    c0,0.351-0.286,0.625-0.65,0.625S18.467,31.7,18.467,31.35z M19.117,9.572c-0.358,0-0.65,0.292-0.65,0.651V31.35V10.223
                    C18.467,9.864,18.759,9.572,19.117,9.572s0.65,0.292,0.65,0.651C19.768,9.864,19.476,9.572,19.117,9.572z"/>
            </g>
        </g>
        <g>
            <g>
                <path fill="#FFFFFF" d="M28.35,32c-0.358,0-0.649-0.291-0.649-0.65V0.651C27.699,0.292,27.99,0,28.35,0C28.71,0,29,0.292,29,0.651
                    V31.35C29,31.709,28.709,32,28.35,32z"/>
                <path fill="#FFFFFF" d="M28.35,32.5c-0.634,0-1.149-0.516-1.149-1.15V0.651c-0.001-0.306,0.118-0.595,0.336-0.813
                    C27.753-0.38,28.042-0.5,28.35-0.5c0.635,0,1.15,0.516,1.15,1.151V31.35C29.5,31.984,28.984,32.5,28.35,32.5z M28.35,0.5
                    c-0.051,0-0.086,0.024-0.105,0.044C28.224,0.564,28.2,0.599,28.2,0.649v30.7c-0.001,0.166,0.299,0.164,0.3,0V0.651
                    C28.5,0.568,28.433,0.5,28.35,0.5z"/>
            </g>
            <g>
                <path fill="#FFFFFF" d="M28.35,32.5c-0.634,0-1.149-0.516-1.149-1.15V0.651c-0.001-0.306,0.118-0.595,0.336-0.813
                    C27.753-0.38,28.042-0.5,28.35-0.5c0.635,0,1.15,0.516,1.15,1.151V31.35C29.5,31.984,28.984,32.5,28.35,32.5z M28.35,0.5
                    c-0.051,0-0.086,0.024-0.105,0.044C28.224,0.564,28.2,0.599,28.2,0.649v30.7c-0.001,0.166,0.299,0.164,0.3,0V0.651
                    C28.5,0.568,28.433,0.5,28.35,0.5z"/>
                <path fill="#FFFFFF" d="M28.35,33c-0.909,0-1.649-0.74-1.649-1.65V0.651c-0.001-0.439,0.17-0.854,0.482-1.167
                    C27.493-0.828,27.908-1,28.35-1C29.26-1,30-0.259,30,0.651V31.35C30,32.26,29.26,33,28.35,33z M27.818,31.724
                    C27.937,31.891,28.13,32,28.35,32c0.358,0,0.65-0.292,0.65-0.65c-0.002,0.352-0.288,0.624-0.651,0.624l0,0
                    c-0.179,0-0.351-0.069-0.471-0.19L27.818,31.724z M27.751,0.396C27.718,0.476,27.7,0.561,27.7,0.649v30.7
                    c0,0.049,0.005,0.096,0.016,0.141L27.7,31.347V0.649C27.7,0.561,27.718,0.476,27.751,0.396z M28.35,0C28.708,0,29,0.292,29,0.651
                    C29,0.292,28.708,0,28.35,0c-0.001,0-0.001,0-0.002,0C28.349,0,28.349,0,28.35,0z"/>
            </g>
        </g>
    </symbol>
    <symbol id="icon-payments" viewBox="0 0 67 59">
        <path fill='#FFFFFF' d="M51.211,59.801c-0.539,0-1.078-0.206-1.489-0.617c-0.821-0.822-0.821-2.155,0-2.979l11.678-11.677L49.722,32.852
            c-0.821-0.822-0.821-2.155,0-2.978c0.822-0.822,2.156-0.822,2.979,0L65.866,43.04c0.395,0.396,0.617,0.932,0.617,1.489
            c0,0.56-0.223,1.094-0.617,1.489L52.7,59.184C52.289,59.595,51.75,59.801,51.211,59.801"/>
        <path fill='#FFFFFF' d="M64.256,46.635H2.104C0.941,46.635,0,45.692,0,44.529s0.941-2.104,2.104-2.104h62.151c1.163,0,2.105,0.941,2.105,2.104
            S65.419,46.635,64.256,46.635"/>
        <path fill='#FFFFFF' d="M16.323,30.543c-0.539,0-1.078-0.206-1.488-0.617L1.669,16.76c-0.396-0.396-0.617-0.93-0.617-1.489
            c0-0.558,0.222-1.094,0.617-1.489L14.835,0.616c0.821-0.822,2.155-0.822,2.978,0c0.822,0.823,0.822,2.156,0,2.978L6.136,15.271
            l11.677,11.677c0.822,0.823,0.822,2.156,0,2.979C17.401,30.337,16.862,30.543,16.323,30.543"/>
        <path fill='#FFFFFF' d="M65.187,17.377H3.036c-1.163,0-2.105-0.943-2.105-2.106s0.942-2.105,2.105-2.105h62.15c1.163,0,2.106,0.942,2.106,2.105
            S66.35,17.377,65.187,17.377"/>
    </symbol>

    <symbol id="icon-inbox" viewBox="0 0 39 32">
        <path fill='#FFFFFF' d="M33.158 32h-27.432c-3.158 0-5.726-2.568-5.726-5.726v-20.549c0-3.158 2.568-5.726 5.726-5.726h27.432c3.158 0 5.726 2.568 5.726 5.726v20.549c0 3.159-2.568 5.726-5.726 5.726zM5.726 2.863c-1.579 0-2.863 1.284-2.863 2.863v20.549c0 1.579 1.284 2.863 2.863 2.863h27.432c1.579 0 2.863-1.284 2.863-2.863v-20.549c0-1.579-1.284-2.863-2.863-2.863h-27.432z"></path>
        <path fill='#FFFFFF' d="M19.441 19.789c-0.799 0-1.549-0.312-2.111-0.877l-15.224-15.226 2.024-2.024 15.227 15.228h0.17l15.44-15.44 2.024 2.024-15.44 15.44c-0.565 0.564-1.313 0.875-2.11 0.875z"></path>
        <path fill='#FFFFFF' d="M4.87 30.861c-0.336 0-0.68-0.062-1.019-0.182l-2.136-0.759 14.002-14 2.024 2.024-12.399 12.399-0.494-0.494 0.021 1.012z"></path>
        <path fill='#FFFFFF' d="M34.014 30.861v-0.991l-0.472 0.472-12.366-12.364 2.024-2.024 13.959 13.957-2.12 0.764c-0.339 0.123-0.684 0.185-1.025 0.185z"></path>
    </symbol>
    <symbol id="icon-help" viewBox="0 0 32 32">
        <title>help</title>
        <path fill="#FFFFFF" d="M16 32c-8.822 0-16-7.178-16-16s7.178-16 16-16 16 7.178 16 16c0 8.822-7.178 16-16 16zM16 2.133c-7.646 0-13.867 6.221-13.867 13.867s6.221 13.867 13.867 13.867 13.867-6.221 13.867-13.867c0-7.646-6.221-13.867-13.867-13.867z"></path>
        <path fill="#FFFFFF" d="M15.023 20.157l-0.051-0.659c-0.153-1.343 0.304-2.864 1.571-4.383 1.14-1.344 1.774-2.332 1.774-3.472 0-1.293-0.811-2.155-2.407-2.179-0.912 0-1.925 0.303-2.559 0.785l-0.608-1.597c0.862-0.608 2.282-1.013 3.623-1.013 2.914 0 4.233 1.799 4.233 3.725 0 1.723-0.962 2.965-2.179 4.41-1.115 1.317-1.521 2.459-1.444 3.751l0.050 0.634h-2.002zM14.491 23.73c0-0.938 0.634-1.596 1.494-1.596 0.912 0 1.495 0.658 1.495 1.596 0 0.887-0.583 1.572-1.521 1.572-0.86 0-1.469-0.685-1.469-1.572z"></path>
    </symbol>
    <symbol id="icon-esafe" viewBox="0 0 33 30">
        <g>
            <g>
                <path fill="#FFFFFF" d="M28.1,27.9H4.9c-1.6,0-3-1.3-3-3V3.5c0-1.1,0.9-2,2-2h6.6c0.9,0,1.3,0.6,1.6,1.2c0.1,0.1,0.2,0.3,0.3,0.5
                    l1.3,1.9h14.4c1.6,0,3,1.3,3,3v16.9C31.1,26.6,29.8,27.9,28.1,27.9z M3.9,2.7c-0.4,0-0.8,0.4-0.8,0.8v21.4c0,1,0.8,1.8,1.8,1.8
                    h23.2c1,0,1.8-0.8,1.8-1.8V8c0-1-0.8-1.8-1.8-1.8H13.1l-1.6-2.4c-0.1-0.2-0.2-0.4-0.3-0.6c-0.3-0.6-0.3-0.6-0.6-0.6H3.9z"/>
            </g>
            <g>
                <g>
                    <path fill-rule="evenodd" clip-rule="evenodd" fill="#FFFFFF" d="M20,15h-0.4v-1.5c0-1.8-1.3-3.2-3.1-3.2c-1.8,0-3.1,1.4-3.1,3.2V15H13c-0.9,0-1.6,0.7-1.6,1.6v4.7
                        c0,0.9,0.7,1.6,1.6,1.6h7c0.9,0,1.6-0.7,1.6-1.6v-4.7C21.6,15.7,20.9,15,20,15z M14.2,13.5c0-1.3,0.9-2.4,2.3-2.4
                        c1.4,0,2.4,1.1,2.4,2.4V15h-4.7V13.5z M20.8,21.2c0,0.4-0.4,0.8-0.8,0.8h-7c-0.4,0-0.8-0.3-0.8-0.8v-4.7c0-0.4,0.4-0.8,0.8-0.8h7
                        c0.4,0,0.8,0.3,0.8,0.8V21.2z"/>
                </g>
                <g>
                    <path fill="none" stroke="#FFFFFF" stroke-width="0.6" stroke-miterlimit="10" d="M20,15h-0.4v-1.5c0-1.8-1.3-3.2-3.1-3.2c-1.8,0-3.1,1.4-3.1,3.2V15H13c-0.9,0-1.6,0.7-1.6,1.6v4.7
                        c0,0.9,0.7,1.6,1.6,1.6h7c0.9,0,1.6-0.7,1.6-1.6v-4.7C21.6,15.7,20.9,15,20,15z M14.2,13.5c0-1.3,0.9-2.4,2.3-2.4
                        c1.4,0,2.4,1.1,2.4,2.4V15h-4.7V13.5z M20.8,21.2c0,0.4-0.4,0.8-0.8,0.8h-7c-0.4,0-0.8-0.3-0.8-0.8v-4.7c0-0.4,0.4-0.8,0.8-0.8h7
                        c0.4,0,0.8,0.3,0.8,0.8V21.2z"/>
                </g>
            </g>
        </g>
    </symbol>
    <symbol viewBox="0 0 17.7 16.6" id="shape-admin"><title>admin</title>  <g> <g> <g> <circle fill=" #2683b4" cx="6.8" cy="3.7" r="3.7"/> <path fill=" #2683b4" d="M0,11.2c0-2.4,3-4.3,6.7-4.3c3.7,0,6.7,1.9,6.7,4.3H0z"/> </g> </g> <path fill=" #2683b4" d="M17.6,5.1l-1.7,1.7l-1.4-1.4l1.7-1.7c-0.8-0.3-1.7-0.1-2.4,0.5C13,5,12.9,6.1,13.3,7l-5.3,5.3
		c-0.9-0.5-2-0.3-2.7,0.4c-0.6,0.7-0.8,1.6-0.5,2.4l1.7-1.7L8,14.7l-1.7,1.7C7,16.7,8,16.6,8.6,15.9c0.7-0.7,0.9-1.8,0.4-2.6L14.4,8
		c0.9,0.4,1.9,0.3,2.6-0.4C17.7,6.9,17.9,5.9,17.6,5.1z"/> </g> </symbol>

    <view id="icon-accounts-view" viewBox="0 0 43 34" />
    <view id="icon-self-service-view" viewBox="0 35 32 32" />
    <view id="icon-investments-view" viewBox="0 68 45 34" />
    <view id="icon-payments-view" viewBox="0 103 67 59" />
    <view id="icon-inbox-view" viewBox="0 163 39 32" />    
    <view id="icon-help-view" viewBox="0 196 38 32" />
    <view id="icon-esafe-view" viewBox="0 229 38 30" />
    <view id="icon-username-arrow-view" viewBox="0 260 269 269" />

    <use xlink:href="#icon-accounts" width="43" height="34" x="0" y="0" id="accounts"></use>
    <use xlink:href="#icon-self-service" width="43" height="35" x="0" y="35" id="self-service"></use>
    <use xlink:href="#icon-investments" width="43" height="35" x="0" y="68" id="investments"></use>
    <use xlink:href="#icon-payments" width="67" height="59" x="0" y="103" id="payments"></use>
    <use xlink:href="#icon-inbox" width="39" height="32" x="0" y="163" id="inbox"></use>
    <use xlink:href="#icon-help" width="39" height="32" x="0" y="196" id="help"></use>
    <use xlink:href="#icon-esafe" width="39" height="32" x="0" y="229" id="esafe"></use>
    <use xlink:href="#icon-username-arrow" width="39" height="32" x="0" y="260" id="username-arrow"></use>
    
</svg>
