<?xml version="1.0" encoding="utf-8"?>
<!-- Generator: Adobe Illustrator 15.0.2, SVG Export Plug-In . SVG Version: 6.00 Build 0)  -->
<!DOCTYPE svg PUBLIC "-//W3C//DTD SVG 1.1//EN" "http://www.w3.org/Graphics/SVG/1.1/DTD/svg11.dtd">
<svg version="1.1" id="Layer_1" xmlns="http://www.w3.org/2000/svg" xmlns:xlink="http://www.w3.org/1999/xlink" x="0px" y="0px"
	 width="67.293px" height="59.801px" viewBox="0 0 67.293 59.801" enable-background="new 0 0 67.293 59.801" xml:space="preserve">
<path fill='#FFFFFF' d="M51.211,59.801c-0.539,0-1.078-0.206-1.489-0.617c-0.821-0.822-0.821-2.155,0-2.979l11.678-11.677L49.722,32.852
	c-0.821-0.822-0.821-2.155,0-2.978c0.822-0.822,2.156-0.822,2.979,0L65.866,43.04c0.395,0.396,0.617,0.932,0.617,1.489
	c0,0.56-0.223,1.094-0.617,1.489L52.7,59.184C52.289,59.595,51.75,59.801,51.211,59.801"/>
<path fill='#FFFFFF' d="M64.256,46.635H2.104C0.941,46.635,0,45.692,0,44.529s0.941-2.104,2.104-2.104h62.151c1.163,0,2.105,0.941,2.105,2.104
	S65.419,46.635,64.256,46.635"/>
<path fill='#FFFFFF' d="M16.323,30.543c-0.539,0-1.078-0.206-1.488-0.617L1.669,16.76c-0.396-0.396-0.617-0.93-0.617-1.489
	c0-0.558,0.222-1.094,0.617-1.489L14.835,0.616c0.821-0.822,2.155-0.822,2.978,0c0.822,0.823,0.822,2.156,0,2.978L6.136,15.271
	l11.677,11.677c0.822,0.823,0.822,2.156,0,2.979C17.401,30.337,16.862,30.543,16.323,30.543"/>
<path fill='#FFFFFF' d="M65.187,17.377H3.036c-1.163,0-2.105-0.943-2.105-2.106s0.942-2.105,2.105-2.105h62.15c1.163,0,2.106,0.942,2.106,2.105
	S66.35,17.377,65.187,17.377"/>
</svg>
