<?xml version="1.0" encoding="utf-8"?>
<!-- Generator: Adobe Illustrator 15.0.2, SVG Export Plug-In . SVG Version: 6.00 Build 0)  -->
<!DOCTYPE svg PUBLIC "-//W3C//DTD SVG 1.1//EN" "http://www.w3.org/Graphics/SVG/1.1/DTD/svg11.dtd">
<svg version="1.1" id="Layer_1" xmlns="http://www.w3.org/2000/svg" xmlns:xlink="http://www.w3.org/1999/xlink" x="0px" y="0px"
	 width="30.45px" height="30.451px" viewBox="0.784 0.829 30.45 30.451" enable-background="new 0.784 0.829 30.45 30.451"
	 xml:space="preserve">
<g>
	<path fill="#bdbfd1" d="M16.009,30.78c-8.119,0-14.725-6.606-14.725-14.726S7.89,1.329,16.009,1.329c8.12,0,14.726,6.605,14.726,14.725
		S24.129,30.78,16.009,30.78z M16.009,2.329c-7.568,0-13.725,6.157-13.725,13.725c0,7.569,6.157,13.726,13.725,13.726
		c7.568,0,13.726-6.157,13.726-13.726C29.734,8.486,23.577,2.329,16.009,2.329z"/>
	<path fill="#bdbfd1" d="M16.009,31.28c-8.395,0-15.225-6.83-15.225-15.226c0-8.395,6.83-15.225,15.225-15.225c8.396,0,15.226,6.83,15.226,15.225
		C31.234,24.45,24.404,31.28,16.009,31.28z M16.009,2.829c-7.292,0-13.225,5.933-13.225,13.225S8.717,29.28,16.009,29.28
		c7.293,0,13.226-5.934,13.226-13.226S23.302,2.829,16.009,2.829z M16.009,1.829c7.844,0,14.226,6.381,14.226,14.225
		C30.234,8.21,23.853,1.829,16.009,1.829c-7.843,0-14.225,6.381-14.225,14.225C1.784,8.21,8.166,1.829,16.009,1.829z"/>
</g>
<g>
	<path fill="#bdbfd1" d="M16,24.142c-0.285,0-0.516-0.231-0.516-0.517V8.141c0-0.285,0.231-0.516,0.516-0.516s0.517,0.231,0.517,0.516v15.484
		C16.517,23.91,16.285,24.142,16,24.142z"/>
	<path fill="#bdbfd1" d="M16,24.642c-0.56,0-1.016-0.456-1.016-1.017V8.141c0-0.56,0.456-1.016,1.016-1.016c0.561,0,1.017,0.456,1.017,1.016v15.484
		C17.017,24.186,16.561,24.642,16,24.642z M16.017,8.141l-0.033,15.484L16,23.642c0.009,0,0.017-0.008,0.017-0.017V8.141z"/>
</g>
<g>
	<path fill="#bdbfd1" d="M23.742,16.399H8.258c-0.285,0-0.516-0.231-0.516-0.516s0.231-0.516,0.516-0.516h15.484c0.285,0,0.517,0.231,0.517,0.516
		S24.027,16.399,23.742,16.399z"/>
	<path fill="#bdbfd1" d="M23.742,16.898H8.258c-0.56,0-1.016-0.456-1.016-1.016s0.456-1.016,1.016-1.016h15.484c0.561,0,1.017,0.456,1.017,1.016
		S24.303,16.898,23.742,16.898z M8.258,15.867l15.484,0.032c0.009,0,0.017-0.007,0.017-0.016L8.258,15.867z"/>
</g>
</svg>
