<?xml version="1.0"?>
<!--Icons from directory ""-->
<svg xmlns="http://www.w3.org/2000/svg" width="300" height="527" viewBox="0 0 300 527" ><svg xmlns:xlink="http://www.w3.org/1999/xlink" width="300" height="70" viewBox="0 0 354 83" id="Logo_OnlineBanking" y="0"><defs><path id="Logo_OnlineBanking-a" d="M-22.235-24h400V98h-400z"/></defs><clipPath id="Logo_OnlineBanking-b"><use xlink:href="#Logo_OnlineBanking-a" overflow="visible"/></clipPath><path clip-path="url(#Logo_OnlineBanking-b)" fill="#024594" d="M0 .454h13.476c4.573 0 8.122 1.645 10.644 4.934 2.249 2.968 3.374 6.77 3.374 11.406 0 3.58-.664 6.816-1.993 9.707-2.34 5.111-6.363 7.665-12.069 7.665H0V.454zm12.579 29.811c1.511 0 2.752-.161 3.726-.482 1.734-.597 3.155-1.744 4.263-3.442.883-1.362 1.519-3.106 1.908-5.233.224-1.269.336-2.447.336-3.534 0-4.177-.813-7.42-2.435-9.73-1.624-2.31-4.237-3.466-7.843-3.466H4.613v25.887h7.966z"/><defs><path id="Logo_OnlineBanking-c" d="M-22.235-24h400V98h-400z"/></defs><clipPath id="Logo_OnlineBanking-d"><use xlink:href="#Logo_OnlineBanking-c" overflow="visible"/></clipPath><path clip-path="url(#Logo_OnlineBanking-d)" fill="#024594" d="M48.367 10.265c1.626.818 2.866 1.878 3.717 3.178.822 1.24 1.368 2.685 1.643 4.338.244 1.132.365 2.937.365 5.416H36.214c.076 2.501.661 4.507 1.754 6.018 1.093 1.511 2.785 2.266 5.077 2.266 2.141 0 3.849-.714 5.124-2.144a7.3 7.3 0 001.517-2.881h4.062c-.106.902-.463 1.908-1.066 3.017-.605 1.11-1.278 2.016-2.022 2.72-1.246 1.224-2.787 2.05-4.624 2.478-.987.245-2.103.368-3.348.368-3.041 0-5.618-1.114-7.731-3.339-2.114-2.227-3.17-5.344-3.17-9.352 0-3.948 1.064-7.153 3.193-9.616s4.911-3.695 8.348-3.695c1.731 0 3.411.41 5.039 1.228m1.479 9.65c-.167-1.79-.555-3.22-1.161-4.292-1.122-1.988-2.996-2.983-5.62-2.983-1.882 0-3.459.685-4.734 2.054-1.273 1.369-1.949 3.11-2.024 5.221h13.539z"/><defs><path id="Logo_OnlineBanking-e" d="M-22.235-24h400V98h-400z"/></defs><clipPath id="Logo_OnlineBanking-f"><use xlink:href="#Logo_OnlineBanking-e" overflow="visible"/></clipPath><path clip-path="url(#Logo_OnlineBanking-f)" fill="#024594" d="M63.455 9.588v16.317c0 1.255.194 2.28.581 3.075.715 1.469 2.049 2.203 4.001 2.203 2.801 0 4.708-1.285 5.722-3.855.551-1.377.826-3.266.826-5.669V9.588h4.131v24.579h-3.9l.046-3.626a8.293 8.293 0 01-1.96 2.363c-1.547 1.286-3.423 1.928-5.63 1.928-3.438 0-5.779-1.17-7.025-3.511-.676-1.254-1.014-2.93-1.014-5.026V9.588h4.222z"/><defs><path id="Logo_OnlineBanking-g" d="M-22.235-24h400V98h-400z"/></defs><clipPath id="Logo_OnlineBanking-h"><use xlink:href="#Logo_OnlineBanking-g" overflow="visible"/></clipPath><path clip-path="url(#Logo_OnlineBanking-h)" fill="#024594" d="M86.289 2.726h4.177v6.862h3.925v3.373h-3.925v16.042c0 .857.29 1.431.872 1.721.321.169.856.252 1.606.252.199 0 .413-.004.643-.015.229-.009.497-.035.804-.076v3.281a9.347 9.347 0 01-1.48.299c-.513.061-1.067.092-1.664.092-1.928 0-3.235-.494-3.924-1.48-.689-.988-1.033-2.268-1.033-3.845V12.961h-3.328V9.588h3.328V2.726z"/><defs><path id="Logo_OnlineBanking-i" d="M-22.235-24h400V98h-400z"/></defs><clipPath id="Logo_OnlineBanking-j"><use xlink:href="#Logo_OnlineBanking-i" overflow="visible"/></clipPath><path clip-path="url(#Logo_OnlineBanking-j)" fill="#024594" d="M100.977 26.456c.125 1.377.476 2.433 1.054 3.167 1.062 1.331 2.904 1.997 5.528 1.997 1.561 0 2.935-.333 4.122-.999 1.187-.665 1.779-1.694 1.779-3.086 0-1.056-.474-1.859-1.422-2.41-.606-.336-1.804-.727-3.592-1.17l-3.335-.827c-2.13-.52-3.701-1.101-4.711-1.744-1.804-1.116-2.706-2.662-2.706-4.636 0-2.325.849-4.207 2.547-5.645 1.697-1.438 3.981-2.157 6.849-2.157 3.752 0 6.458 1.086 8.116 3.259 1.04 1.376 1.543 2.861 1.514 4.452h-3.901a4.682 4.682 0 00-1.01-2.534c-.972-1.08-2.655-1.62-5.052-1.62-1.598 0-2.808.297-3.63.891-.821.595-1.232 1.38-1.232 2.356 0 1.067.54 1.921 1.621 2.561.623.381 1.543.717 2.759 1.008l2.782.665c3.023.72 5.05 1.416 6.08 2.089 1.605 1.055 2.408 2.716 2.408 4.98 0 2.188-.84 4.077-2.521 5.668-1.68 1.591-4.24 2.387-7.679 2.387-3.702 0-6.324-.83-7.865-2.49-1.541-1.66-2.366-3.714-2.475-6.162h3.972z"/><defs><path id="Logo_OnlineBanking-k" d="M-22.235-24h400V98h-400z"/></defs><clipPath id="Logo_OnlineBanking-l"><use xlink:href="#Logo_OnlineBanking-k" overflow="visible"/></clipPath><path clip-path="url(#Logo_OnlineBanking-l)" fill="#024594" d="M138.257 10.896c1.736 1.347 2.78 3.665 3.134 6.954h-4.017c-.245-1.515-.804-2.773-1.676-3.775-.872-1.002-2.271-1.504-4.199-1.504-2.632 0-4.513 1.284-5.646 3.851-.735 1.666-1.103 3.721-1.103 6.166 0 2.46.521 4.531 1.562 6.212 1.041 1.68 2.677 2.521 4.912 2.521 1.713 0 3.069-.522 4.072-1.566 1.002-1.044 1.694-2.473 2.077-4.286h4.017c-.459 3.259-1.607 5.642-3.443 7.149-1.836 1.507-4.184 2.26-7.045 2.26-3.213 0-5.776-1.174-7.688-3.523-1.913-2.348-2.868-5.282-2.868-8.801 0-4.314 1.048-7.672 3.144-10.075 2.096-2.401 4.766-3.603 8.01-3.603 2.768 0 5.021.674 6.757 2.02"/><defs><path id="Logo_OnlineBanking-m" d="M-22.235-24h400V98h-400z"/></defs><clipPath id="Logo_OnlineBanking-n"><use xlink:href="#Logo_OnlineBanking-m" overflow="visible"/></clipPath><path clip-path="url(#Logo_OnlineBanking-n)" fill="#024594" d="M145.521.339h4.131v12.576c.978-1.239 1.859-2.111 2.639-2.616 1.332-.872 2.991-1.308 4.98-1.308 3.563 0 5.98 1.247 7.252 3.741.688 1.361 1.033 3.251 1.033 5.668v15.766h-4.246V18.675c0-1.805-.229-3.128-.688-3.97-.75-1.346-2.158-2.019-4.223-2.019-1.714 0-3.268.589-4.659 1.767-1.392 1.178-2.088 3.404-2.088 6.678v13.035h-4.131V.339z"/><defs><path id="Logo_OnlineBanking-o" d="M-22.235-24h400V98h-400z"/></defs><clipPath id="Logo_OnlineBanking-p"><use xlink:href="#Logo_OnlineBanking-o" overflow="visible"/></clipPath><path clip-path="url(#Logo_OnlineBanking-p)" fill="#024594" d="M186.842 10.265c1.626.818 2.866 1.878 3.718 3.178.821 1.24 1.367 2.685 1.644 4.338.243 1.132.363 2.937.363 5.416H174.69c.076 2.501.66 4.507 1.754 6.018 1.093 1.511 2.785 2.266 5.077 2.266 2.142 0 3.85-.714 5.123-2.144a7.29 7.29 0 001.518-2.881h4.063c-.106.902-.463 1.908-1.066 3.017-.604 1.11-1.278 2.016-2.021 2.72-1.246 1.224-2.787 2.05-4.624 2.478-.987.245-2.104.368-3.349.368-3.04 0-5.617-1.114-7.731-3.339-2.113-2.227-3.17-5.344-3.17-9.352 0-3.948 1.064-7.153 3.193-9.616s4.912-3.695 8.348-3.695c1.73 0 3.41.41 5.037 1.228m1.48 9.65c-.167-1.79-.555-3.22-1.161-4.292-1.122-1.988-2.996-2.983-5.62-2.983-1.882 0-3.459.685-4.733 2.054-1.274 1.369-1.95 3.11-2.025 5.221h13.539z"/><defs><path id="Logo_OnlineBanking-q" d="M-22.235-24h400V98h-400z"/></defs><clipPath id="Logo_OnlineBanking-r"><use xlink:href="#Logo_OnlineBanking-q" overflow="visible"/></clipPath><path clip-path="url(#Logo_OnlineBanking-r)" fill="#024594" d="M211.293.454h14.576c3.974 0 6.8 1.178 8.479 3.534.984 1.393 1.478 2.999 1.478 4.819 0 2.127-.604 3.872-1.812 5.233-.628.719-1.531 1.377-2.709 1.974 1.729.658 3.021 1.399 3.879 2.226 1.514 1.468 2.271 3.496 2.271 6.081 0 2.173-.685 4.139-2.055 5.898-2.047 2.632-5.303 3.947-9.768 3.947h-14.34V.454h.001zm12.87 14.251c1.948 0 3.464-.267 4.546-.803 1.7-.841 2.553-2.356 2.553-4.544 0-2.203-.906-3.687-2.715-4.452-1.021-.428-2.534-.642-4.545-.642h-8.231v10.441h8.392zm1.544 15.56c2.826 0 4.843-.811 6.047-2.433.758-1.025 1.137-2.264 1.137-3.717 0-2.448-1.105-4.116-3.313-5.003-1.175-.474-2.726-.712-4.656-.712h-9.149v11.865h9.934z"/><defs><path id="Logo_OnlineBanking-s" d="M-22.235-24h400V98h-400z"/></defs><clipPath id="Logo_OnlineBanking-t"><use xlink:href="#Logo_OnlineBanking-s" overflow="visible"/></clipPath><path clip-path="url(#Logo_OnlineBanking-t)" fill="#024594" d="M255.378 19.292c.949-.122 1.584-.52 1.906-1.192.183-.368.275-.898.275-1.589 0-1.413-.501-2.438-1.501-3.076-1-.637-2.434-.956-4.295-.956-2.151 0-3.681.585-4.58 1.753-.505.646-.832 1.607-.984 2.883h-3.856c.076-3.038 1.061-5.151 2.945-6.34 1.888-1.189 4.077-1.784 6.568-1.784 2.887 0 5.231.551 7.037 1.652 1.787 1.102 2.682 2.816 2.682 5.141v14.161c0 .428.087.773.263 1.032.177.26.547.39 1.113.39.184 0 .391-.012.62-.035a9.81 9.81 0 00.733-.103v3.052c-.644.184-1.133.298-1.47.344-.336.046-.795.069-1.377.069-1.422 0-2.455-.505-3.097-1.514-.337-.536-.575-1.293-.711-2.272-.842 1.102-2.051 2.058-3.627 2.869-1.575.81-3.313 1.216-5.209 1.216-2.281 0-4.145-.692-5.588-2.075-1.446-1.383-2.169-3.113-2.169-5.192 0-2.276.712-4.041 2.134-5.294 1.424-1.253 3.29-2.025 5.599-2.315l6.589-.825zm-8.698 11.159c.873.687 1.904 1.03 3.1 1.03 1.453 0 2.859-.336 4.222-1.008 2.295-1.115 3.443-2.94 3.443-5.476v-3.322c-.504.322-1.154.591-1.947.805a16.2 16.2 0 01-2.337.46l-2.496.321c-1.496.199-2.622.512-3.376.94-1.276.717-1.916 1.862-1.916 3.434 0 1.19.437 2.129 1.307 2.816"/><defs><path id="Logo_OnlineBanking-u" d="M-22.235-24h400V98h-400z"/></defs><clipPath id="Logo_OnlineBanking-v"><use xlink:href="#Logo_OnlineBanking-u" overflow="visible"/></clipPath><path clip-path="url(#Logo_OnlineBanking-v)" fill="#024594" d="M268.345 9.588h3.924v3.488c1.163-1.438 2.394-2.47 3.693-3.098 1.302-.627 2.746-.941 4.339-.941 3.487 0 5.845 1.217 7.067 3.649.673 1.331 1.01 3.236 1.01 5.715v15.766h-4.198V18.676c0-1.499-.224-2.708-.665-3.626-.734-1.53-2.066-2.295-3.994-2.295-.979 0-1.782.1-2.409.298-1.133.337-2.127 1.01-2.984 2.02-.688.811-1.136 1.649-1.343 2.513-.206.864-.309 2.1-.309 3.706v12.875h-4.131V9.588z"/><g><defs><path id="Logo_OnlineBanking-w" d="M-22.235-24h400V98h-400z"/></defs><clipPath id="Logo_OnlineBanking-x"><use xlink:href="#Logo_OnlineBanking-w" overflow="visible"/></clipPath><path clip-path="url(#Logo_OnlineBanking-x)" fill="#024594" d="M294.392.454h3.972v19.574l10.592-10.44h5.277l-9.446 9.138 9.975 15.44h-5.276l-7.731-12.507-3.391 3.282v9.225h-3.972z"/></g><g><defs><path id="Logo_OnlineBanking-y" d="M-22.235-24h400V98h-400z"/></defs><clipPath id="Logo_OnlineBanking-z"><use xlink:href="#Logo_OnlineBanking-y" overflow="visible"/></clipPath><path clip-path="url(#Logo_OnlineBanking-z)" fill="#0098DB" d="M11.231 74.704c-1.826 0-3.457-.304-4.891-.911-1.435-.605-2.609-1.461-3.528-2.563-.918-1.102-1.617-2.402-2.096-3.908C.239 65.82 0 64.16 0 62.346c0-3.804.98-6.822 2.94-9.057 1.961-2.234 4.729-3.352 8.307-3.352 3.514 0 6.252 1.125 8.218 3.375 1.967 2.25 2.949 5.268 2.949 9.047 0 1.773-.242 3.408-.725 4.908-.484 1.498-1.186 2.801-2.104 3.906-.919 1.105-2.092 1.973-3.521 2.594-1.428.626-3.039.937-4.833.937m0-1.692c1.977 0 3.639-.451 4.986-1.354 1.349-.901 2.338-2.141 2.966-3.713.629-1.574.942-3.445.942-5.615 0-3.395-.752-6.021-2.256-7.88s-3.712-2.788-6.623-2.788c-2.933 0-5.164.927-6.694 2.779-1.53 1.854-2.297 4.482-2.297 7.889 0 3.298.761 5.902 2.28 7.814 1.521 1.913 3.753 2.868 6.696 2.868"/></g><g><defs><path id="Logo_OnlineBanking-A" d="M-22.235-24h400V98h-400z"/></defs><clipPath id="Logo_OnlineBanking-B"><use xlink:href="#Logo_OnlineBanking-A" overflow="visible"/></clipPath><path clip-path="url(#Logo_OnlineBanking-B)" fill="#0098DB" d="M26.684 74.333v-17.66h1.739l.274 2.722c.634-.942 1.485-1.688 2.554-2.229a7.537 7.537 0 013.456-.813c2.031 0 3.524.56 4.48 1.676.956 1.117 1.434 2.9 1.434 5.351v10.957h-2.014v-11.86c-.054-1.568-.387-2.697-.999-3.385s-1.617-1.031-3.013-1.031c-1.602 0-2.909.403-3.925 1.209a5.18 5.18 0 00-1.908 3.127 18.57 18.57 0 00-.065 1.578v10.36h-2.013z"/></g><g><defs><path id="Logo_OnlineBanking-C" d="M-22.235-24h400V98h-400z"/></defs><clipPath id="Logo_OnlineBanking-D"><use xlink:href="#Logo_OnlineBanking-C" overflow="visible"/></clipPath><path clip-path="url(#Logo_OnlineBanking-D)" fill="#0098DB" d="M49.693 74.704c-1.482 0-2.567-.336-3.255-1.009-.688-.67-1.031-1.764-1.031-3.278V49.809l1.966-.16v20.656c0 1.074.195 1.815.588 2.225.393.408.985.611 1.78.611.646 0 1.451-.123 2.417-.369l.081 1.547c-1.052.256-1.901.385-2.546.385"/></g><g><defs><path id="Logo_OnlineBanking-E" d="M-22.235-24h400V98h-400z"/></defs><clipPath id="Logo_OnlineBanking-F"><use xlink:href="#Logo_OnlineBanking-E" overflow="visible"/></clipPath><path clip-path="url(#Logo_OnlineBanking-F)" fill="#0098DB" d="M54.817 50.355h1.998v2.707h-1.998v-2.707zm0 6.318h2.014v17.66h-2.014v-17.66z"/></g><g><defs><path id="Logo_OnlineBanking-G" d="M-22.235-24h400V98h-400z"/></defs><clipPath id="Logo_OnlineBanking-H"><use xlink:href="#Logo_OnlineBanking-G" overflow="visible"/></clipPath><path clip-path="url(#Logo_OnlineBanking-H)" fill="#0098DB" d="M61.778 74.333v-17.66h1.74l.273 2.722c.634-.942 1.485-1.688 2.555-2.229a7.531 7.531 0 013.456-.813c2.03 0 3.523.56 4.479 1.676.956 1.117 1.434 2.9 1.434 5.351v10.957h-2.014v-11.86c-.054-1.568-.387-2.697-.999-3.385s-1.617-1.031-3.013-1.031c-1.602 0-2.909.403-3.924 1.209a5.176 5.176 0 00-1.909 3.127 18.57 18.57 0 00-.065 1.578v10.36h-2.013z"/></g><g><defs><path id="Logo_OnlineBanking-I" d="M-22.235-24h400V98h-400z"/></defs><clipPath id="Logo_OnlineBanking-J"><use xlink:href="#Logo_OnlineBanking-I" overflow="visible"/></clipPath><path clip-path="url(#Logo_OnlineBanking-J)" fill="#0098DB" d="M87.496 74.721c-2.438 0-4.375-.816-5.81-2.449-1.434-1.633-2.15-3.847-2.15-6.64 0-2.696.7-4.903 2.104-6.623 1.4-1.718 3.214-2.604 5.438-2.657 2.073 0 3.738.74 4.995 2.224 1.257 1.481 1.885 3.47 1.885 5.962 0 .097-.003.293-.008.588-.006.296-.008.503-.008.621H81.646c.021 2.268.569 4.063 1.644 5.391 1.074 1.325 2.492 1.988 4.254 1.988 1.149 0 2.148-.134 2.997-.402.85-.268 1.735-.648 2.659-1.145l.338 1.499c-1.784 1.094-3.797 1.643-6.042 1.643m-5.769-10.587h10.055c0-1.967-.425-3.473-1.273-4.521-.849-1.047-2.014-1.571-3.496-1.571-1.505 0-2.719.56-3.642 1.677-.924 1.117-1.473 2.59-1.644 4.415"/></g><g><defs><path id="Logo_OnlineBanking-K" d="M-22.235-24h400V98h-400z"/></defs><clipPath id="Logo_OnlineBanking-L"><use xlink:href="#Logo_OnlineBanking-K" overflow="visible"/></clipPath><path clip-path="url(#Logo_OnlineBanking-L)" fill="#0098DB" d="M105.977 74.333V50.355h6.542c2.976 0 5.147.494 6.518 1.482 1.371.988 2.054 2.492 2.054 4.512 0 .236-.002.414-.008.531-.005.119-.028.354-.071.701-.044.35-.109.643-.201.879a7.642 7.642 0 01-.429.878 3.627 3.627 0 01-.7.91 6.149 6.149 0 01-1.07.78 6.8 6.8 0 01-1.5.654c1.676.246 2.961.918 3.851 2.014.894 1.096 1.338 2.391 1.338 3.883 0 2.117-.672 3.771-2.013 4.963-1.344 1.193-3.407 1.789-6.188 1.789l-8.123.002zm2.063-13.293h5.495c.848 0 1.579-.063 2.191-.192a4.816 4.816 0 001.668-.687c.5-.327.875-.794 1.127-1.401.254-.607.379-1.361.379-2.265 0-1.677-.519-2.839-1.555-3.488-1.037-.649-2.678-.975-4.923-.975h-4.383v9.008zm0 11.683h5.527c4.35 0 6.525-1.714 6.525-5.142 0-1.856-.601-3.149-1.804-3.875-1.204-.726-3.089-1.088-5.657-1.088h-4.592v10.105z"/></g><g><defs><path id="Logo_OnlineBanking-M" d="M-22.235-24h400V98h-400z"/></defs><clipPath id="Logo_OnlineBanking-N"><use xlink:href="#Logo_OnlineBanking-M" overflow="visible"/></clipPath><path clip-path="url(#Logo_OnlineBanking-N)" fill="#0098DB" d="M130.518 74.721c-1.665 0-2.998-.42-3.997-1.258s-1.498-2.035-1.498-3.593c0-.925.199-1.728.596-2.409.398-.684.976-1.234 1.733-1.66.756-.424 1.622-.754 2.593-.99.973-.235 2.104-.402 3.393-.5 1.374-.086 2.395-.154 3.061-.209v-1.965c0-1.355-.309-2.373-.925-3.055-.619-.684-1.61-1.023-2.974-1.023a10.71 10.71 0 00-5.236 1.336c-.043-.104-.144-.34-.299-.699s-.266-.637-.329-.829c.664-.431 1.534-.79 2.608-1.079a12.045 12.045 0 013.158-.436c2.117 0 3.637.453 4.561 1.36.925.908 1.387 2.517 1.387 4.826v11.795h-1.564a23.559 23.559 0 01-.232-1.467 50.37 50.37 0 01-.154-1.128c-1.386 1.989-3.347 2.983-5.882 2.983m.064-1.597c1.375 0 2.598-.405 3.666-1.216 1.068-.813 1.771-1.938 2.104-3.377v-3.014c-1.547.129-2.327.193-2.337.193-2.621.236-4.442.667-5.463 1.289-1.021.624-1.53 1.591-1.53 2.9 0 1.074.325 1.881.975 2.418s1.511.807 2.585.807"/></g><g><defs><path id="Logo_OnlineBanking-O" d="M-22.235-24h400V98h-400z"/></defs><clipPath id="Logo_OnlineBanking-P"><use xlink:href="#Logo_OnlineBanking-O" overflow="visible"/></clipPath><path clip-path="url(#Logo_OnlineBanking-P)" fill="#0098DB" d="M143.151 74.333v-17.66h1.74l.273 2.722c.633-.942 1.485-1.688 2.553-2.229a7.54 7.54 0 013.456-.813c2.032 0 3.524.56 4.481 1.676.955 1.117 1.434 2.9 1.434 5.351v10.957h-2.014v-11.86c-.055-1.568-.387-2.697-1-3.385-.611-.688-1.616-1.031-3.013-1.031-1.601 0-2.908.403-3.924 1.209a5.186 5.186 0 00-1.909 3.127 18.58 18.58 0 00-.064 1.578v10.36h-2.013z"/></g><g><defs><path id="Logo_OnlineBanking-Q" d="M-22.235-24h400V98h-400z"/></defs><clipPath id="Logo_OnlineBanking-R"><use xlink:href="#Logo_OnlineBanking-Q" overflow="visible"/></clipPath><path clip-path="url(#Logo_OnlineBanking-R)" fill="#0098DB" d="M161.745 74.333V49.809l1.982-.16v15.532c.097-.119.44-.5 1.031-1.146s.925-1.009.999-1.097l6.106-6.268h2.692l-7.397 7.381 7.912 10.279h-2.529l-6.752-9.152-2.063 1.901v7.251l-1.981.003z"/></g><g><defs><path id="Logo_OnlineBanking-S" d="M-22.235-24h400V98h-400z"/></defs><clipPath id="Logo_OnlineBanking-T"><use xlink:href="#Logo_OnlineBanking-S" overflow="visible"/></clipPath><path clip-path="url(#Logo_OnlineBanking-T)" fill="#0098DB" d="M177.809 50.355h1.999v2.707h-1.999v-2.707zm0 6.318h2.014v17.66h-2.014v-17.66z"/></g><g><defs><path id="Logo_OnlineBanking-U" d="M-22.235-24h400V98h-400z"/></defs><clipPath id="Logo_OnlineBanking-V"><use xlink:href="#Logo_OnlineBanking-U" overflow="visible"/></clipPath><path clip-path="url(#Logo_OnlineBanking-V)" fill="#0098DB" d="M184.771 74.333v-17.66h1.74l.272 2.722c.635-.942 1.486-1.688 2.555-2.229s2.222-.813 3.455-.813c2.031 0 3.523.56 4.48 1.676.955 1.117 1.435 2.9 1.435 5.351v10.957h-2.015v-11.86c-.055-1.568-.387-2.697-1-3.385-.61-.688-1.615-1.031-3.012-1.031-1.603 0-2.908.403-3.925 1.209-1.016.807-1.651 1.849-1.909 3.127a18.58 18.58 0 00-.064 1.578v10.36h-2.012z"/></g><g><defs><path id="Logo_OnlineBanking-W" d="M-22.235-24h400V98h-400z"/></defs><clipPath id="Logo_OnlineBanking-X"><use xlink:href="#Logo_OnlineBanking-W" overflow="visible"/></clipPath><path clip-path="url(#Logo_OnlineBanking-X)" fill="#0098DB" d="M206.056 82.534l-.242-1.788h3.738c.827 0 1.559-.072 2.19-.219.635-.145 1.17-.332 1.604-.563.436-.23.807-.554 1.112-.967.306-.414.545-.825.718-1.232.172-.408.303-.938.395-1.588.092-.648.146-1.246.168-1.787.021-.543.033-1.229.033-2.056 0 .118-.012.093-.033-.08l-.08-1.11c-.676 1.02-1.477 1.807-2.399 2.358-.925.554-2.054.83-3.386.83-1.053 0-2.01-.188-2.875-.563-.864-.375-1.574-.865-2.127-1.467a8.61 8.61 0 01-1.395-2.063 9.963 9.963 0 01-.806-2.313 11.074 11.074 0 01-.241-2.28c0-.943.077-1.845.233-2.697.155-.854.426-1.689.813-2.506a7.804 7.804 0 011.451-2.119c.579-.596 1.325-1.074 2.237-1.434.914-.361 1.945-.539 3.095-.539 1.129 0 2.125.221 2.989.668.865.444 1.668 1.156 2.408 2.135l.193-2.481h1.772v16.371c0 .709-.008 1.281-.024 1.716-.017.436-.08 1.026-.193 1.771-.111.748-.268 1.361-.467 1.838-.199.479-.502 1.007-.91 1.587s-.9 1.037-1.475 1.37c-.575.333-1.312.617-2.207.854-.896.235-1.916.354-3.056.354h-3.233zm4.076-9.828c.785 0 1.494-.127 2.127-.379.636-.253 1.158-.586 1.572-.999.414-.414.762-.898 1.047-1.458s.486-1.138.604-1.731a9.422 9.422 0 00.178-1.847v-1.836c0-.838-.102-1.628-.307-2.369a6.975 6.975 0 00-.941-2.055c-.424-.628-1.008-1.125-1.748-1.49-.742-.364-1.602-.548-2.578-.548-.795 0-1.512.152-2.151.459s-1.162.712-1.57 1.217-.752 1.096-1.031 1.771a9.37 9.37 0 00-.588 2.07c-.113.704-.17 1.426-.17 2.168 0 .655.051 1.291.154 1.909.102.617.283 1.243.547 1.877.264.636.6 1.185 1.008 1.651.408.468.941.849 1.604 1.145.657.298 1.405.445 2.243.445"/></g><g><defs><path id="Logo_OnlineBanking-Y" d="M-22.235-24h400V98h-400z"/></defs></g><g><defs><path id="Logo_OnlineBanking-Z" d="M-22.235-24h400V98h-400z"/></defs></g><g><defs><path id="Logo_OnlineBanking-aa" d="M-22.235-24h400V98h-400z"/></defs></g><g><defs><path id="Logo_OnlineBanking-ab" d="M-22.235-24h400V98h-400z"/></defs></g><g><defs><path id="Logo_OnlineBanking-ac" d="M-22.235-24h400V98h-400z"/></defs></g><g><defs><path id="Logo_OnlineBanking-ad" d="M-22.235-24h400V98h-400z"/></defs></g><g><defs><path id="Logo_OnlineBanking-ae" d="M-22.235-24h400V98h-400z"/></defs></g><g><defs><path id="Logo_OnlineBanking-af" d="M-22.235-24h400V98h-400z"/></defs></g></svg><svg width="70" height="70" id="accounts" y="70"><path fill="none" stroke="#fff" stroke-width="4" stroke-miterlimit="10" d="M7.692 48.841V22.373c0-3.851 3.15-7 7-7H56.27c3.851 0 7 3.149 7 7v26.468c0 3.85-3.149 7-7 7H14.692c-3.85 0-7-3.151-7-7zM7.076 27.373H63.51"/></svg><svg version="1.1" id="esafe-icon-nav" x="0" y="140" viewBox="0 0 32.8 29.7" xml:space="preserve" width="32" height="32"><style/><path d="M28.1 27.9H4.9c-1.6 0-3-1.3-3-3V3.5c0-1.1.9-2 2-2h6.6c.9 0 1.3.6 1.6 1.2.1.1.2.3.3.5l1.3 1.9h14.4c1.6 0 3 1.3 3 3V25c0 1.6-1.3 2.9-3 2.9zM3.9 2.7c-.4 0-.8.4-.8.8v21.4c0 1 .8 1.8 1.8 1.8h23.2c1 0 1.8-.8 1.8-1.8V8c0-1-.8-1.8-1.8-1.8h-15l-1.6-2.4-.3-.6c-.3-.6-.3-.6-.6-.6H3.9z" fill="#fff"/><path d="M20 15h-.4v-1.5c0-1.8-1.3-3.2-3.1-3.2s-3.1 1.4-3.1 3.2V15H13c-.9 0-1.6.7-1.6 1.6v4.7c0 .9.7 1.6 1.6 1.6h7c.9 0 1.6-.7 1.6-1.6v-4.7c0-.9-.7-1.6-1.6-1.6zm-5.8-1.5c0-1.3.9-2.4 2.3-2.4s2.4 1.1 2.4 2.4V15h-4.7v-1.5zm6.6 7.7c0 .4-.4.8-.8.8h-7c-.4 0-.8-.3-.8-.8v-4.7c0-.4.4-.8.8-.8h7c.4 0 .8.3.8.8v4.7z" fill-rule="evenodd" clip-rule="evenodd" fill="#fff"/><path d="M20 15h-.4v-1.5c0-1.8-1.3-3.2-3.1-3.2s-3.1 1.4-3.1 3.2V15H13c-.9 0-1.6.7-1.6 1.6v4.7c0 .9.7 1.6 1.6 1.6h7c.9 0 1.6-.7 1.6-1.6v-4.7c0-.9-.7-1.6-1.6-1.6zm-5.8-1.5c0-1.3.9-2.4 2.3-2.4s2.4 1.1 2.4 2.4V15h-4.7v-1.5zm6.6 7.7c0 .4-.4.8-.8.8h-7c-.4 0-.8-.3-.8-.8v-4.7c0-.4.4-.8.8-.8h7c.4 0 .8.3.8.8v4.7z" fill="none" stroke="#fff" stroke-width=".6" stroke-miterlimit="10"/></svg><svg width="32" height="32" id="help" y="172"><path fill="#FFF" d="M16 32C7.178 32 0 24.822 0 16S7.178 0 16 0s16 7.178 16 16-7.178 16-16 16zm0-29.867C8.354 2.133 2.133 8.354 2.133 16S8.354 29.867 16 29.867 29.867 23.646 29.867 16c0-7.646-6.221-13.867-13.867-13.867z"/><path fill="#FFF" d="M15.023 20.157l-.051-.659c-.153-1.343.304-2.864 1.571-4.383 1.14-1.344 1.774-2.332 1.774-3.472 0-1.293-.811-2.155-2.407-2.179-.912 0-1.925.303-2.559.785l-.608-1.597c.862-.608 2.282-1.013 3.623-1.013 2.914 0 4.233 1.799 4.233 3.725 0 1.723-.962 2.965-2.179 4.41-1.115 1.317-1.521 2.459-1.444 3.751l.05.634h-2.002zm-.532 3.573c0-.938.634-1.596 1.494-1.596.912 0 1.495.658 1.495 1.596 0 .887-.583 1.572-1.521 1.572-.86 0-1.469-.685-1.469-1.572z"/></svg><svg width="20" height="20" id="icon-logout" y="204"><path fill="#868686" d="M10 10.941a.394.394 0 01-.395-.394V.783a.394.394 0 01.79 0v9.764a.394.394 0 01-.395.394z"/><path fill="#868686" d="M10 19.446c-5.081 0-9.213-4.134-9.213-9.214a9.13 9.13 0 013.702-7.374.395.395 0 01.552.08.395.395 0 01-.081.552 8.348 8.348 0 00-3.385 6.742c0 4.646 3.78 8.425 8.425 8.425s8.425-3.779 8.425-8.425a8.347 8.347 0 00-3.386-6.742.394.394 0 11.473-.632 9.131 9.131 0 013.702 7.374c0 5.081-4.134 9.214-9.214 9.214z"/></svg><svg width="39" height="32" id="inbox" y="224"><path fill="#FFF" d="M33.158 32H5.726A5.732 5.732 0 010 26.274V5.725A5.732 5.732 0 015.726-.001h27.432a5.732 5.732 0 015.726 5.726v20.549A5.731 5.731 0 0133.158 32zM5.726 2.863a2.866 2.866 0 00-2.863 2.863v20.549a2.866 2.866 0 002.863 2.863h27.432a2.866 2.866 0 002.863-2.863V5.726a2.866 2.866 0 00-2.863-2.863H5.726z"/><path fill="#FFF" d="M19.441 19.789a2.958 2.958 0 01-2.111-.877L2.106 3.686 4.13 1.662 19.357 16.89h.17l15.44-15.44 2.024 2.024-15.44 15.44a2.966 2.966 0 01-2.11.875z"/><path fill="#FFF" d="M4.87 30.861c-.336 0-.68-.062-1.019-.182l-2.136-.759 14.002-14 2.024 2.024L5.342 30.343l-.494-.494.021 1.012zM34.014 30.861v-.991l-.472.472-12.366-12.364 2.024-2.024 13.959 13.957-2.12.764a3 3 0 01-1.025.185z"/></svg><svg width="31" height="34" viewBox="-1 -1 31 34" id="investments" y="256"><g fill="#FFF"><path d="M.651 32A.65.65 0 010 31.35v-8.912a.65.65 0 011.302 0v8.912a.65.65 0 01-.651.65z"/><path d="M.651 32.5A1.152 1.152 0 01-.5 31.35v-8.912a1.15 1.15 0 012.302 0v8.912c0 .634-.516 1.15-1.151 1.15zm0-10.212a.15.15 0 00-.151.149v8.912c0 .166.302.166.302 0v-8.912a.15.15 0 00-.151-.149z"/><g><path d="M.651 32.5A1.152 1.152 0 01-.5 31.35v-8.912a1.15 1.15 0 012.302 0v8.912c0 .634-.516 1.15-1.151 1.15zm0-10.212a.15.15 0 00-.151.149v8.912c0 .166.302.166.302 0v-8.912a.15.15 0 00-.151-.149z"/><path d="M.651 33C-.259 33-1 32.26-1 31.35v-8.912c0-.909.741-1.649 1.651-1.649s1.651.74 1.651 1.649v8.912c0 .91-.741 1.65-1.651 1.65zM0 31.352a.651.651 0 001.302 0c-.001.35-.287.623-.651.623s-.65-.274-.651-.623zm.651-9.564a.65.65 0 00-.651.65v8.912-8.912a.65.65 0 11.651-.65z"/></g></g><g fill="#FFF"><path d="M9.884 32a.65.65 0 01-.651-.65V15.504a.652.652 0 011.302 0V31.35a.65.65 0 01-.651.65z"/><path d="M9.884 32.5a1.152 1.152 0 01-1.151-1.15V15.504a1.152 1.152 0 012.302 0V31.35c0 .634-.516 1.15-1.151 1.15zm0-17.147a.152.152 0 00-.151.151V31.35c0 .166.302.165.302 0V15.504a.152.152 0 00-.151-.151z"/><g><path d="M9.884 32.5a1.152 1.152 0 01-1.151-1.15V15.504a1.152 1.152 0 012.302 0V31.35c0 .634-.516 1.15-1.151 1.15zm0-17.147a.152.152 0 00-.151.151V31.35c0 .166.302.165.302 0V15.504a.152.152 0 00-.151-.151z"/><path d="M9.884 33c-.91 0-1.651-.74-1.651-1.65V15.504c0-.91.741-1.651 1.651-1.651.911 0 1.651.741 1.651 1.651V31.35c0 .91-.741 1.65-1.651 1.65zm-.532-1.276a.651.651 0 001.183-.37.608.608 0 01-.253.492.682.682 0 01-.399.127.668.668 0 01-.472-.19l-.059-.059zm.532-16.871a.652.652 0 00-.651.651V31.35a.63.63 0 00.016.144l-.016-.146V15.504a.652.652 0 11.651-.651z"/></g></g><g fill="#FFF"><path d="M19.117 32a.65.65 0 01-.65-.65V10.223a.65.65 0 111.3 0V31.35a.649.649 0 01-.65.65z"/><path d="M19.117 32.5a1.15 1.15 0 01-1.15-1.15V10.223c0-.635.516-1.151 1.15-1.151s1.15.516 1.15 1.151V31.35a1.15 1.15 0 01-1.15 1.15zm0-22.428a.15.15 0 00-.15.151V31.35c0 .166.301.166.301 0V10.223a.152.152 0 00-.151-.151z"/><g><path d="M19.117 32.5a1.15 1.15 0 01-1.15-1.15V10.223c0-.635.516-1.151 1.15-1.151s1.15.516 1.15 1.151V31.35a1.15 1.15 0 01-1.15 1.15zm0-22.428a.15.15 0 00-.15.151V31.35c0 .166.301.166.301 0V10.223a.152.152 0 00-.151-.151z"/><path d="M19.117 33c-.91 0-1.65-.74-1.65-1.65V10.223c0-.91.74-1.651 1.65-1.651s1.65.741 1.65 1.651V31.35c.001.91-.74 1.65-1.65 1.65zm-.65-1.65c0 .358.292.65.65.65s.65-.292.65-.65c0 .351-.286.625-.65.625s-.65-.275-.65-.625zm.65-21.778a.651.651 0 00-.65.651V31.35 10.223c0-.359.292-.651.65-.651z"/></g></g><g fill="#FFF"><path d="M28.35 32a.65.65 0 01-.649-.65V.651a.65.65 0 111.299 0V31.35a.65.65 0 01-.65.65z"/><path d="M28.35 32.5a1.15 1.15 0 01-1.149-1.15V.651a1.137 1.137 0 01.336-.813A1.151 1.151 0 0129.5.651V31.35c0 .634-.516 1.15-1.15 1.15zm0-32a.143.143 0 00-.105.044.144.144 0 00-.045.105v30.7c-.001.166.299.164.3 0V.651A.15.15 0 0028.35.5z"/><g><path d="M28.35 32.5a1.15 1.15 0 01-1.149-1.15V.651a1.137 1.137 0 01.336-.813A1.151 1.151 0 0129.5.651V31.35c0 .634-.516 1.15-1.15 1.15zm0-32a.143.143 0 00-.105.044.144.144 0 00-.045.105v30.7c-.001.166.299.164.3 0V.651A.15.15 0 0028.35.5z"/><path d="M28.35 33c-.909 0-1.649-.74-1.649-1.65V.651c-.001-.439.17-.854.482-1.167.31-.312.725-.484 1.167-.484C29.26-1 30-.259 30 .651V31.35c0 .91-.74 1.65-1.65 1.65zm-.532-1.276A.651.651 0 0029 31.35a.632.632 0 01-.651.624.665.665 0 01-.471-.19l-.06-.06zM27.751.396a.66.66 0 00-.051.253v30.7c0 .049.005.096.016.141l-.016-.143V.649a.66.66 0 01.051-.253zM28.35 0h-.002.002z"/></g></g></svg><svg width="145" height="145" id="logo" y="290"><path fill="#273894" d="M0 0h145v145H0V0zm20.576 20.576v104.828h104.828V20.576H20.576zm66.619 14.695h26.455l-54.867 75.436H32.328l54.867-75.436z"/></svg><svg width="32" height="32" id="logout" y="435"><path fill="#FFF" d="M15.984 18.064c-.57 0-1.032-.461-1.032-1.031v-16a1.032 1.032 0 112.064 0v16a1.03 1.03 0 01-1.032 1.031z"/><path fill="#FFF" d="M15.984 32C7.446 32 .5 25.055.5 16.516c0-4.918 2.267-9.435 6.22-12.391a1.031 1.031 0 111.236 1.654c-3.427 2.563-5.393 6.476-5.393 10.739 0 7.398 6.02 13.418 13.419 13.418S29.4 23.916 29.4 16.518c0-4.262-1.965-8.175-5.393-10.739a1.033 1.033 0 011.235-1.654c3.955 2.956 6.221 7.473 6.221 12.391C31.464 25.055 24.518 32 15.98 32h.004z"/></svg><svg width="67" height="60" id="payment" y="467"><path fill="#FFF" d="M51.211 59.801a2.1 2.1 0 01-1.489-.617 2.11 2.11 0 010-2.979L61.4 44.528 49.722 32.852a2.108 2.108 0 010-2.978 2.108 2.108 0 012.979 0L65.866 43.04a2.107 2.107 0 010 2.978L52.7 59.184a2.1 2.1 0 01-1.489.617"/><path fill="#FFF" d="M64.256 46.635H2.104a2.104 2.104 0 010-4.21h62.151a2.104 2.104 0 11.001 4.21M16.323 30.543a2.096 2.096 0 01-1.488-.617L1.669 16.76a2.102 2.102 0 010-2.978L14.835.616a2.106 2.106 0 012.978 2.978L6.136 15.271l11.677 11.677a2.108 2.108 0 01-1.49 3.595"/><path fill="#FFF" d="M65.187 17.377H3.036a2.105 2.105 0 010-4.211h62.15a2.105 2.105 0 11.001 4.211"/></svg></svg>
